<?xml version="1.0" encoding="UTF-8" standalone="no"?>
<svg
   xmlns:dc="http://purl.org/dc/elements/1.1/"
   xmlns:cc="http://creativecommons.org/ns#"
   xmlns:rdf="http://www.w3.org/1999/02/22-rdf-syntax-ns#"
   xmlns:svg="http://www.w3.org/2000/svg"
   xmlns="http://www.w3.org/2000/svg"
   xmlns:xlink="http://www.w3.org/1999/xlink"
   xmlns:sodipodi="http://sodipodi.sourceforge.net/DTD/sodipodi-0.dtd"
   xmlns:inkscape="http://www.inkscape.org/namespaces/inkscape"
   width="297mm"
   height="210mm"
   viewBox="0 0 297 210"
   version="1.1"
   id="svg424"
   inkscape:version="1.0.1 (3bc2e813f5, 2020-09-07)"
   sodipodi:docname="drawing1.svg">
  <defs
     id="defs418">
    <linearGradient
       id="linear-gradient"
       x1="1038"
       y1="361.5"
       x2="1073"
       y2="361.5"
       gradientUnits="userSpaceOnUse"
       gradientTransform="matrix(0.26458333,0,0,0.26458333,-99.64047,-29.947129)">
      <stop
         offset="0"
         stop-color="#f71d69"
         id="stop4" />
      <stop
         offset="1"
         stop-color="#f8c648"
         id="stop6" />
    </linearGradient>
    <linearGradient
       id="linear-gradient-2"
       x1="1038"
       y1="382.5"
       x2="1144"
       y2="382.5"
       gradientUnits="userSpaceOnUse">
      <stop
         offset="0"
         stop-color="#93fd94"
         id="stop9" />
      <stop
         offset="1"
         stop-color="#21c4c0"
         id="stop11" />
    </linearGradient>
    <linearGradient
       id="linear-gradient-3"
       y1="406.5"
       x2="1071"
       y2="406.5"
       xlink:href="#linear-gradient-2"
       gradientTransform="matrix(0.26458333,0,0,0.26458333,-99.64047,-29.947129)" />
    <linearGradient
       id="linear-gradient-4"
       x1="1074"
       y1="406.5"
       x2="1107"
       y2="406.5"
       xlink:href="#linear-gradient-2"
       gradientTransform="matrix(0.26458333,0,0,0.26458333,-99.64047,-29.947129)" />
    <linearGradient
       id="linear-gradient-5"
       x1="1111"
       y1="406.5"
       y2="406.5"
       xlink:href="#linear-gradient-2"
       gradientTransform="matrix(0.26458333,0,0,0.26458333,-99.64047,-29.947129)" />
    <linearGradient
       inkscape:collect="always"
       xlink:href="#linear-gradient-2"
       id="linearGradient157"
       gradientUnits="userSpaceOnUse"
       x1="1038"
       y1="382.5"
       x2="1144"
       y2="382.5"
       gradientTransform="matrix(0.26458333,0,0,0.26458333,-99.64047,-29.947129)" />
  </defs>
  <sodipodi:namedview
     id="base"
     pagecolor="#ffffff"
     bordercolor="#666666"
     borderopacity="1.0"
     inkscape:pageopacity="0.0"
     inkscape:pageshadow="2"
     inkscape:zoom="0.35"
     inkscape:cx="400"
     inkscape:cy="560"
     inkscape:document-units="mm"
     inkscape:current-layer="layer1"
     inkscape:document-rotation="0"
     showgrid="false"
     units="mm"
     inkscape:window-width="1545"
     inkscape:window-height="971"
     inkscape:window-x="95"
     inkscape:window-y="122"
     inkscape:window-maximized="0" />
  <metadata
     id="metadata421">
    <rdf:RDF>
      <cc:Work
         rdf:about="">
        <dc:format>image/svg+xml</dc:format>
        <dc:type
           rdf:resource="http://purl.org/dc/dcmitype/StillImage" />
        <dc:title></dc:title>
      </cc:Work>
    </rdf:RDF>
  </metadata>
  <g
     inkscape:label="Layer 1"
     inkscape:groupmode="layer"
     id="layer1">
    <path
       d="m 126.51848,167.51592 v -13.40379 c 0,-4.17857 -3.3872,-7.56603 -7.56576,-7.56603 h -9.56522 v 63.74924 h 12.26132 4.86966 15.12914 v -27.65028 c 0,-4.17857 -3.38746,-7.56603 -7.56603,-7.56603 -4.17565,0.003 -7.56311,-3.38455 -7.56311,-7.56311 z"
       fill="#b6d5d0"
       id="path2"
       style="stroke-width:0.264583" />
    <path
       d="M 226.73788,15.523961 H 97.166125 v 67.56209 H 226.73788 Z"
       fill="#edf6f5"
       id="path8"
       style="stroke-width:0.264583" />
    <path
       d="m 125.14476,21.592571 h -20.8698 v 19.24746 h 20.8698 z"
       fill="#dceceb"
       id="path10"
       style="stroke-width:0.264583" />
    <path
       d="m 213.87358,39.018381 h -0.78264 v -1.17396 h -1.17369 v -0.78237 h 1.95633 z"
       fill="#b6d5d0"
       id="path12"
       style="stroke-width:0.264583" />
    <path
       d="m 208.71579,37.844421 h -3.20172 v -0.78237 h 3.20172 z m -6.40054,0 h -3.20172 v -0.78237 h 3.20172 z m -6.40344,0 h -3.20172 v -0.78237 h 3.20172 z m -6.4008,0 h -3.20172 v -0.78237 h 3.20172 z m -6.40345,0 h -3.20172 v -0.78237 h 3.20172 z m -6.40053,0 h -3.20173 v -0.78237 h 3.20173 z m -6.40054,0 h -3.20172 v -0.78237 h 3.20172 z m -6.40371,0 h -3.20172 v -0.78237 h 3.20172 z m -6.40053,0 h -3.20173 v -0.78237 h 3.20173 z"
       fill="#b6d5d0"
       id="path14"
       style="stroke-width:0.264583" />
    <path
       d="m 149.92458,39.018381 h -0.78264 v -1.95633 h 1.9566 v 0.78237 h -1.17396 z"
       fill="#b6d5d0"
       id="path16"
       style="stroke-width:0.264583" />
    <path
       d="m 149.92458,70.987451 h -0.78264 v -3.19617 h 0.78264 z m 0,-6.39207 h -0.78264 v -3.19908 h 0.78264 z m 0,-6.39498 h -0.78264 v -3.1959 h 0.78264 z m 0,-6.39498 h -0.78264 v -3.1959 h 0.78264 z m 0,-6.39207 h -0.78264 v -3.1959 h 0.78264 z"
       fill="#b6d5d0"
       id="path18"
       style="stroke-width:0.264583" />
    <path
       d="m 151.09854,76.139681 h -1.9566 v -1.95368 h 0.78264 v 1.17104 h 1.17396 z"
       fill="#b6d5d0"
       id="path20"
       style="stroke-width:0.264583" />
    <path
       d="m 208.71579,76.139681 h -3.20172 v -0.78264 h 3.20172 z m -6.40054,0 h -3.20172 v -0.78264 h 3.20172 z m -6.40344,0 h -3.20172 v -0.78264 h 3.20172 z m -6.4008,0 h -3.20172 v -0.78264 h 3.20172 z m -6.40345,0 h -3.20172 v -0.78264 h 3.20172 z m -6.40053,0 h -3.20173 v -0.78264 h 3.20173 z m -6.40054,0 h -3.20172 v -0.78264 h 3.20172 z m -6.40371,0 h -3.20172 v -0.78264 h 3.20172 z m -6.40053,0 h -3.20173 v -0.78264 h 3.20173 z"
       fill="#b6d5d0"
       id="path22"
       style="stroke-width:0.264583" />
    <path
       d="m 213.87358,76.139681 h -1.95633 v -0.78264 h 1.17369 v -1.17104 h 0.78264 z"
       fill="#b6d5d0"
       id="path24"
       style="stroke-width:0.264583" />
    <path
       d="m 213.87358,70.987451 h -0.78264 v -3.19617 h 0.78264 z m 0,-6.39207 h -0.78264 v -3.19908 h 0.78264 z m 0,-6.39498 h -0.78264 v -3.1959 h 0.78264 z m 0,-6.39498 h -0.78264 v -3.1959 h 0.78264 z m 0,-6.39207 h -0.78264 v -3.1959 h 0.78264 z"
       fill="#b6d5d0"
       id="path26"
       style="stroke-width:0.264583" />
    <path
       d="M 153.46074,86.735721 H 85.218875 c -1.07104,0 -1.9394,-0.86837 -1.9394,-1.9394 v -33.51107 c 0,-1.07103 0.86836,-1.93939 1.9394,-1.93939 h 68.241865 c 1.07103,0 1.93939,0.86836 1.93939,1.93939 v 33.51398 c -0.003,1.06812 -0.86836,1.93649 -1.93939,1.93649 z"
       fill="#b2e5e0"
       id="path28"
       style="stroke-width:0.264583" />
    <path
       d="M 155.80865,89.084161 H 87.566785 c -1.07103,0 -1.9394,-0.86837 -1.9394,-1.9394 v -33.51398 c 0,-1.07103 0.86837,-1.93939 1.9394,-1.93939 h 68.241865 c 1.07103,0 1.93939,0.86836 1.93939,1.93939 v 33.51398 c -0.003,1.07103 -0.86836,1.9394 -1.93939,1.9394 z"
       fill="#3fb8a9"
       id="path30"
       style="stroke-width:0.264583" />
    <path
       opacity="0.67"
       d="m 90.776705,86.344401 h 61.301585 c 0,0 -2.04232,-14.30338 -5.26124,-18.65048 -3.21601,-4.34711 -5.91212,1.65073 -9.47658,8.78258 -3.56447,7.12893 -10.95613,10.34785 -16.3457,3.21601 -5.39247,-7.12894 -7.82584,-9.39112 -13.82659,-5.56366 -6.00075,3.8272 -10.696315,0.60828 -12.695505,-4.34711 -1.99946,-4.95538 -3.69597,-4.86965 -3.69597,-4.86965 z"
       fill="#ffffff"
       id="path32"
       style="stroke-width:0.264583" />
    <path
       opacity="0.28"
       d="m 90.776705,86.344661 c 0,0 2.82469,0.13123 5.08688,-2.99905 2.26192,-3.13029 2.87046,-7.91157 5.303845,-9.39086 2.43337,-1.47955 4.69556,0 8.08566,6.19496 3.39038,6.19495 8.69421,3.28162 10.95614,-2.89058 2.26218,-6.17193 3.30464,-9.13103 7.04347,-9.47658 3.73856,-0.34845 6.08621,4.26138 7.39166,8.69421 1.30519,4.43548 4.69556,5.91212 8.08567,4.08702 3.39037,-1.8251 9.34826,5.78379 9.34826,5.78379 H 90.776705 Z"
       fill="#ffffff"
       id="path34"
       style="stroke-width:0.264583" />
    <path
       d="m 91.950665,57.086511 c -0.6485,0 -1.17396,-0.52573 -1.17396,-1.17396 0,-0.64849 0.52546,-1.17396 1.17396,-1.17396 0.64823,0 1.17395,0.52547 1.17395,1.17396 0,0.64823 -0.52572,1.17396 -1.17395,1.17396 z"
       fill="#ffffff"
       id="path36"
       style="stroke-width:0.264583" />
    <path
       d="M 120.64632,55.216171 H 96.037945 v 1.39091 h 24.608375 z"
       fill="#ffffff"
       id="path38"
       style="stroke-width:0.264583" />
    <path
       d="m 91.950665,61.324871 c -0.6485,0 -1.17396,-0.52547 -1.17396,-1.17396 0,-0.64823 0.52546,-1.17369 1.17396,-1.17369 0.64823,0 1.17395,0.52546 1.17395,1.17369 0,0.64849 -0.52572,1.17396 -1.17395,1.17396 z"
       fill="#ffffff"
       id="path40"
       style="stroke-width:0.264583" />
    <path
       d="M 114.99402,59.454001 H 96.037945 v 1.39091 h 18.956075 z"
       fill="#ffffff"
       id="path42"
       style="stroke-width:0.264583" />
    <path
       d="m 127.58951,23.566871 h -20.8698 v 19.24748 h 20.8698 z"
       fill="#ffffff"
       id="path44"
       style="stroke-width:0.264583" />
    <path
       d="m 125.14476,32.083651 -7.58878,3.43323 -7.58586,-3.43323 v 5.12974 h 15.17464 z"
       fill="#ffab40"
       id="path46"
       style="stroke-width:0.264583" />
    <path
       d="m 125.14476,29.767221 h -15.17464 v 1.37107 l 7.58586,3.35598 7.58878,-3.35598 z"
       fill="#ffab40"
       id="path48"
       style="stroke-width:0.264583" />
    <path
       d="M 190.55638,35.914021 H 148.5797 v -1.9595 h 41.97668 z m -41.71395,-0.263 h 41.45413 v -1.43933 h -41.45413 z"
       fill="#ffffff"
       id="path50"
       style="stroke-width:0.264583" />
    <path
       d="M 190.55638,27.824651 H 148.5797 v -1.95921 h 41.97668 z m -41.71395,-0.25982 h 41.45413 v -1.43947 h -41.45413 z"
       fill="#ffffff"
       id="path52"
       style="stroke-width:0.264583" />
    <path
       d="M 190.55664,19.739721 H 148.5797 v -1.95932 h 41.97694 z m -41.71394,-0.25992 h 41.45386 v -1.4395 H 148.8427 Z"
       fill="#ffffff"
       id="path54"
       style="stroke-width:0.264583" />
    <path
       d="m 255.54545,49.994351 h -15.92924 v 11.7303 h 15.92924 z"
       fill="#dceceb"
       id="path56"
       style="stroke-width:0.264583" />
    <path
       d="m 244.75998,58.757091 -3.46472,-2.61329 c -0.0855,-0.0659 -0.13706,-0.16563 -0.13706,-0.27147 0,-0.10556 0.0487,-0.20849 0.13441,-0.2741 l 3.4417,-2.6334 0.41699,0.54266 -3.08478,2.35929 3.10462,2.33918 z"
       fill="#ffffff"
       id="path58"
       style="stroke-width:0.264583" />
    <path
       d="m 250.39798,58.757351 -0.41142,-0.54557 3.10462,-2.33918 -3.08451,-2.35929 0.41698,-0.54266 3.44169,2.6334 c 0.0847,0.0659 0.13494,0.16563 0.13494,0.27437 0,0.10848 -0.0529,0.20849 -0.13758,0.2712 z"
       fill="#ffffff"
       id="path60"
       style="stroke-width:0.264583" />
    <path
       d="m 248.01991,52.710831 -1.53273,6.15844 0.66516,0.16563 1.53273,-6.15844 z"
       fill="#ffffff"
       id="path62"
       style="stroke-width:0.264583" />
    <g
       opacity="0.4"
       id="g96"
       transform="matrix(0.26458333,0,0,0.26458333,-11.36093,0.72047051)">
      <path
         opacity="0.4"
         d="m 764.792,636.855 -4.448,-2.472 c -2.817,-1.565 -4.555,-4.545 -4.501,-7.762 0.011,-0.367 0.022,-0.723 0.022,-1.09 0,-0.367 -0.011,-0.723 -0.022,-1.09 -0.054,-3.217 1.684,-6.196 4.501,-7.762 l 4.448,-2.472 c 3.519,-1.954 5.246,-6.045 4.221,-9.931 -0.022,-0.043 -0.022,-0.086 -0.043,-0.13 -1.037,-3.875 -4.599,-6.552 -8.604,-6.487 l -5.095,0.086 c -3.26,0.054 -6.24,-1.727 -7.837,-4.566 -0.324,-0.561 -0.648,-1.123 -0.961,-1.673 -1.684,-2.796 -1.738,-6.283 -0.054,-9.09 l 2.612,-4.339 c 2.073,-3.455 1.522,-7.87 -1.317,-10.709 -0.032,-0.032 -0.075,-0.075 -0.108,-0.108 -2.839,-2.839 -7.254,-3.389 -10.708,-1.317 l -4.34,2.613 c -2.806,1.684 -6.293,1.619 -9.089,-0.054 -0.55,-0.324 -1.112,-0.648 -1.673,-0.961 -2.839,-1.587 -4.631,-4.566 -4.566,-7.837 l 0.086,-5.095 c 0.065,-4.016 -2.612,-7.567 -6.488,-8.604 -0.043,-0.021 -0.086,-0.021 -0.129,-0.043 -3.886,-1.025 -7.978,0.702 -9.932,4.221 l -2.472,4.447 c -1.565,2.818 -4.544,4.556 -7.761,4.502 -0.367,-0.011 -0.723,-0.022 -1.09,-0.022 -0.367,0 -0.724,0.011 -1.091,0.022 -3.216,0.054 -6.196,-1.684 -7.761,-4.502 l -2.472,-4.447 c -1.954,-3.519 -6.045,-5.246 -9.931,-4.221 -0.044,0.022 -0.087,0.022 -0.13,0.043 -3.875,1.037 -6.552,4.599 -6.488,8.604 l 0.087,5.095 c 0.054,3.26 -1.728,6.239 -4.567,7.837 -0.561,0.324 -1.122,0.648 -1.673,0.961 -2.796,1.684 -6.282,1.738 -9.089,0.054 l -4.34,-2.613 c -3.454,-2.061 -7.869,-1.522 -10.708,1.317 -0.033,0.033 -0.076,0.076 -0.108,0.108 -2.839,2.839 -3.39,7.254 -1.317,10.709 l 2.612,4.339 c 1.684,2.807 1.62,6.294 -0.054,9.09 -0.324,0.55 -0.647,1.112 -0.96,1.673 -1.587,2.839 -4.567,4.631 -7.837,4.566 l -5.096,-0.086 c -4.015,-0.065 -7.567,2.612 -8.603,6.487 -0.022,0.044 -0.022,0.087 -0.043,0.13 -1.026,3.886 0.701,7.977 4.22,9.931 l 4.448,2.472 c 2.817,1.566 4.555,4.545 4.501,7.762 -0.01,0.367 -0.021,0.723 -0.021,1.09 0,0.367 0.011,0.723 0.021,1.09 0.054,3.217 -1.684,6.197 -4.501,7.762 l -4.448,2.472 c -3.519,1.954 -5.246,6.045 -4.22,9.931 0.021,0.043 0.021,0.087 0.043,0.13 1.036,3.875 4.598,6.552 8.603,6.487 l 5.096,-0.086 c 3.26,-0.054 6.239,1.727 7.837,4.566 0.323,0.562 0.647,1.123 0.96,1.674 1.684,2.795 1.738,6.282 0.054,9.089 l -2.612,4.339 c -2.062,3.455 -1.522,7.87 1.317,10.709 0.032,0.032 0.075,0.075 0.108,0.108 2.839,2.839 7.254,3.389 10.708,1.317 l 4.34,-2.612 c 2.807,-1.684 6.293,-1.62 9.089,0.053 0.551,0.324 1.112,0.648 1.673,0.961 2.839,1.587 4.631,4.566 4.567,7.837 l -0.087,5.095 c -0.064,4.016 2.613,7.568 6.488,8.604 0.043,0.021 0.086,0.022 0.13,0.043 3.886,1.026 7.977,-0.702 9.931,-4.221 l 2.472,-4.447 c 1.565,-2.818 4.545,-4.556 7.761,-4.502 0.367,0.011 0.724,0.022 1.091,0.022 0.367,0 0.723,-0.011 1.09,-0.022 3.217,-0.054 6.196,1.684 7.761,4.502 l 2.472,4.447 c 1.954,3.519 6.046,5.247 9.932,4.221 0.043,-0.021 0.086,-0.022 0.129,-0.043 3.876,-1.036 6.553,-4.599 6.488,-8.604 l -0.086,-5.095 c -0.054,-3.26 1.727,-6.239 4.566,-7.837 0.561,-0.324 1.123,-0.648 1.673,-0.961 2.796,-1.684 6.283,-1.737 9.089,-0.053 l 4.34,2.612 c 3.454,2.062 7.869,1.522 10.708,-1.317 0.033,-0.033 0.076,-0.076 0.108,-0.108 2.839,-2.839 3.39,-7.254 1.317,-10.709 l -2.612,-4.339 c -1.684,-2.807 -1.619,-6.294 0.054,-9.089 0.324,-0.551 0.648,-1.112 0.961,-1.674 1.587,-2.839 4.566,-4.631 7.837,-4.566 l 5.095,0.086 c 4.016,0.065 7.567,-2.612 8.604,-6.487 0.021,-0.043 0.021,-0.087 0.043,-0.13 1.025,-3.886 -0.702,-7.988 -4.221,-9.931 z m -75.37,38.084 c -27.289,0 -49.419,-22.118 -49.419,-49.419 0,-27.289 22.119,-49.419 49.419,-49.419 27.29,0 49.419,22.119 49.419,49.419 -0.011,27.301 -22.129,49.419 -49.419,49.419 z"
         fill="#f4d7c9"
         id="path92" />
      <path
         opacity="0.4"
         d="m 710.992,631.758 c 3.254,-11.88 -3.738,-24.148 -15.618,-27.402 -11.88,-3.255 -24.149,3.738 -27.403,15.618 -3.254,11.88 3.738,24.148 15.618,27.403 11.88,3.254 24.149,-3.739 27.403,-15.619 z"
         fill="#f4d7c9"
         id="path94" />
    </g>
    <path
       d="m 233.06989,131.82283 v -4.09839 l -3.69014,-0.95409 -2.8276,-3.37026 0.73686,-2.01639 -22.52371,-25.736819 h -94.0869 c -0.9226,0 -1.67084,0.74851 -1.67084,1.67085 v 2.910409 l 0.0228,0.0172 c 0.0572,0.46831 0.24844,0.9398 0.5969,1.35388 l 24.95973,29.74948 c 1.81372,2.15927 4.48998,3.41022 7.31176,3.41022 h 88.56054 c 1.44806,0 2.46486,-1.0967 2.61064,-2.33628 0.0228,-0.1942 0.0228,-0.39687 0,-0.59981 z"
       fill="#b6d5d0"
       id="path110"
       style="stroke-width:0.264583" />
    <path
       d="m 230.46242,130.66369 h -88.56345 c -2.82178,0 -5.49804,-1.2483 -7.31176,-3.41021 L 109.62457,97.506641 c -1.43087,-1.70498 -0.21987,-4.30715 2.00792,-4.30715 h 88.56319 c 2.82204,0 5.49804,1.2483 7.31176,3.41021 l 24.96264,29.746839 c 1.43113,1.70524 0.21722,4.30715 -2.00766,4.30715 z"
       fill="#ffffff"
       id="path112"
       style="stroke-width:0.264583" />
    <path
       d="m 219.42877,124.11949 c -0.17436,0 -0.33708,-0.077 -0.44847,-0.20849 l -17.21115,-20.447 c -0.32279,-0.38285 -0.0513,-0.96547 0.44847,-0.96547 0.1741,0 0.33682,0.077 0.44821,0.2085 l 17.21114,20.447 c 0.3228,0.37994 0.0516,0.96546 -0.4482,0.96546 z"
       fill="#b2e5e0"
       id="path114"
       style="stroke-width:0.264583" />
    <path
       d="M 152.11798,115.59382 H 132.2049 c -0.46831,0 -0.91387,-0.20849 -1.2139,-0.56832 l -9.76498,-11.71602 c -0.33152,-0.39687 -0.0487,-0.99668 0.4654,-0.99668 h 19.91307 c 0.46831,0 0.91387,0.20849 1.21391,0.56832 l 9.76524,11.71575 c 0.33126,0.39714 0.0484,0.99695 -0.46566,0.99695 z"
       fill="#dceceb"
       id="path116"
       style="stroke-width:0.264583" />
    <path
       d="m 142.44984,124.31925 h -2.93609 c -0.46831,0 -0.91122,-0.20558 -1.21099,-0.56541 l -3.61024,-4.3098 c -0.33126,-0.39714 -0.0513,-0.99695 0.46566,-0.99695 h 2.93609 c 0.46831,0 0.91096,0.20558 1.21099,0.56568 l 3.61024,4.3098 c 0.33126,0.39422 0.0513,0.99668 -0.46566,0.99668 z"
       fill="#b2e5e0"
       id="path118"
       style="stroke-width:0.264583" />
    <path
       d="m 150.93873,124.31925 h -2.93608 c -0.46832,0 -0.91123,-0.20558 -1.211,-0.56541 l -3.61024,-4.3098 c -0.33126,-0.39714 -0.0513,-0.99695 0.46567,-0.99695 h 2.93608 c 0.46831,0 0.91096,0.20558 1.21099,0.56568 l 3.61024,4.3098 c 0.33126,0.39422 0.0513,0.99668 -0.46566,0.99668 z"
       fill="#b2e5e0"
       id="path120"
       style="stroke-width:0.264583" />
    <path
       d="m 159.42709,124.31925 h -2.93608 c -0.46831,0 -0.91096,-0.20558 -1.211,-0.56541 l -3.60997,-4.3098 c -0.33153,-0.39714 -0.0516,-0.99695 0.4654,-0.99695 h 2.93608 c 0.46858,0 0.91122,0.20558 1.211,0.56568 l 3.61024,4.3098 c 0.33126,0.39422 0.0513,0.99668 -0.46567,0.99668 z"
       fill="#b2e5e0"
       id="path122"
       style="stroke-width:0.264583" />
    <path
       d="m 175.20446,107.89048 h -22.49514 c -0.4654,0 -0.90832,-0.20558 -1.20809,-0.56277 l -3.36735,-4.01267 c -0.33126,-0.39714 -0.0513,-0.99986 0.4654,-0.99986 h 22.49514 c 0.4654,0 0.90832,0.20584 1.20809,0.56277 l 3.36735,4.01293 c 0.33152,0.39688 0.0516,0.9996 -0.4654,0.9996 z"
       fill="#dceceb"
       id="path124"
       style="stroke-width:0.264583" />
    <path
       d="m 182.0905,116.09706 h -22.49513 c -0.46541,0 -0.90832,-0.20585 -1.20809,-0.56277 l -3.36735,-4.01293 c -0.33126,-0.39397 -0.0516,-0.9996 0.4654,-0.9996 h 22.49514 c 0.4654,0 0.90831,0.20558 1.20808,0.56277 l 3.36736,4.01267 c 0.33126,0.39714 0.0487,0.99986 -0.46541,0.99986 z"
       fill="#dceceb"
       id="path126"
       style="stroke-width:0.264583" />
    <path
       d="m 188.99084,124.31952 h -22.49488 c -0.46566,0 -0.90831,-0.20559 -1.20835,-0.56277 l -3.36735,-4.01294 c -0.33126,-0.39396 -0.0513,-0.99959 0.46567,-0.99959 h 22.49487 c 0.46567,0 0.90832,0.20558 1.20835,0.56276 l 3.36735,4.01294 c 0.33126,0.39687 0.0513,0.9996 -0.46566,0.9996 z"
       fill="#dceceb"
       id="path128"
       style="stroke-width:0.264583" />
    <path
       d="m 198.90451,124.11949 c -0.17409,0 -0.33708,-0.077 -0.44847,-0.20849 l -17.21088,-20.447 c -0.32279,-0.38285 -0.0516,-0.96547 0.44821,-0.96547 0.17436,0 0.33707,0.077 0.44846,0.2085 l 17.21115,20.447 c 0.32279,0.37994 0.0513,0.96546 -0.44847,0.96546 z"
       fill="#b2e5e0"
       id="path130"
       style="stroke-width:0.264583" />
    <path
       d="m 186.18599,106.90596 h -2.45031 c -0.35427,0 -0.87974,-0.28548 -1.17686,-0.63976 l -0.89112,-1.05966 c -0.29713,-0.35401 -0.25135,-0.63976 0.10292,-0.63976 h 2.45057 c 0.35402,0 0.87948,0.28575 1.17661,0.63976 l 0.89111,1.05966 c 0.29713,0.35428 0.25136,0.63976 -0.10292,0.63976 z"
       fill="#b2e5e0"
       id="path132"
       style="stroke-width:0.264583" />
    <path
       d="m 186.35453,106.33764 h -2.45057 c -0.35428,0 -0.87974,-0.28575 -1.17687,-0.63976 l -0.89111,-1.05966 c -0.29687,-0.35428 -0.25136,-0.63976 0.10292,-0.63976 h 2.45057 c 0.35401,0 0.87974,0.28548 1.1766,0.63976 l 0.89112,1.05966 c 0.29713,0.35401 0.24844,0.63976 -0.10266,0.63976 z"
       fill="#dceceb"
       id="path134"
       style="stroke-width:0.264583" />
    <path
       d="m 211.10339,112.21589 h -2.45057 c -0.35401,0 -0.87974,-0.28575 -1.1766,-0.64003 l -0.89112,-1.05939 c -0.29713,-0.35428 -0.25135,-0.63976 0.10266,-0.63976 h 2.45057 c 0.35428,0 0.87974,0.28548 1.17687,0.63976 l 0.89111,1.05939 c 0.29422,0.35428 0.24845,0.64003 -0.10292,0.64003 z"
       fill="#b2e5e0"
       id="path136"
       style="stroke-width:0.264583" />
    <path
       d="m 211.26928,111.64994 h -2.45057 c -0.35401,0 -0.87974,-0.28575 -1.1766,-0.63976 l -0.89112,-1.05966 c -0.29712,-0.35427 -0.25135,-0.63976 0.10266,-0.63976 h 2.45057 c 0.35428,0 0.87974,0.28549 1.17687,0.63976 l 0.89112,1.05966 c 0.29712,0.35137 0.25135,0.63976 -0.10293,0.63976 z"
       fill="#dceceb"
       id="path138"
       style="stroke-width:0.264583" />
    <path
       d="m 209.25819,124.11949 c -0.1741,0 -0.33708,-0.077 -0.44847,-0.20849 l -17.21115,-20.447 c -0.32253,-0.38285 -0.0513,-0.96547 0.44847,-0.96547 0.17436,0 0.33708,0.077 0.44847,0.2085 l 17.21114,20.447 c 0.3228,0.37994 0.0513,0.96546 -0.44846,0.96546 z"
       fill="#b2e5e0"
       id="path140"
       style="stroke-width:0.264583" />
    <path
       d="m 206.80735,119.14532 h -2.45057 c -0.35401,0 -0.87948,-0.28575 -1.1766,-0.63976 l -0.89112,-1.05965 c -0.29713,-0.35402 -0.25135,-0.63977 0.10292,-0.63977 h 2.45057 c 0.35402,0 0.87974,0.28575 1.17661,0.63977 l 0.89111,1.05965 c 0.29713,0.35137 0.25136,0.63976 -0.10292,0.63976 z"
       fill="#b2e5e0"
       id="path142"
       style="stroke-width:0.264583" />
    <path
       d="m 206.97589,118.577 h -2.45057 c -0.35401,0 -0.87974,-0.28575 -1.1766,-0.64003 l -0.89112,-1.05939 c -0.29713,-0.35428 -0.25135,-0.63976 0.10266,-0.63976 h 2.45057 c 0.35428,0 0.87974,0.28548 1.17687,0.63976 l 0.89111,1.05939 c 0.29713,0.35428 0.25136,0.64003 -0.10292,0.64003 z"
       fill="#dceceb"
       id="path144"
       style="stroke-width:0.264583" />
    <path
       d="m 205.2942,184.52492 c 0.0455,0.0773 0.0855,0.15426 0.12832,0.2286 -0.0513,-0.063 -0.0942,-0.13996 -0.12832,-0.2286 z"
       fill="#1b5175"
       id="path148"
       style="stroke-width:0.264583" />
    <path
       d="m 232.89871,167.70774 h -3.49303 v 39.68883 h 3.49303 z"
       fill="#f0d1aa"
       id="path172"
       style="stroke-width:0.264583" />
    <path
       d="m 232.89871,207.39657 h -1.74784 v -39.68883 l 1.74784,-0.10848 z"
       fill="#edbf84"
       id="path174"
       style="stroke-width:0.264583" />
    <path
       d="m 244.9772,210.33265 h -27.65319 c 0,-0.81122 0.32835,-1.54226 0.85963,-2.07354 0.53128,-0.53129 1.26524,-0.8599 2.07645,-0.8599 h 21.78103 c 1.62216,-0.003 2.93608,1.31101 2.93608,2.93344 z"
       fill="#edbf84"
       id="path176"
       style="stroke-width:0.264583" />
    <path
       d="m 236.15467,210.33265 h -18.82775 c 0,-0.81122 0.32835,-1.54226 0.85963,-2.07354 0.53128,-0.53129 1.26524,-0.8599 2.07645,-0.8599 h 10.89052 z"
       fill="#f0d1aa"
       id="path178"
       style="stroke-width:0.264583" />
    <path
       d="m 258.79188,132.42529 c -0.15345,0.25135 -0.30162,0.50562 -0.44714,0.76544 -0.17727,0.31433 -0.3519,0.63712 -0.51329,0.96255 -0.0873,0.16272 -0.16934,0.32571 -0.24871,0.49425 -0.082,0.16563 -0.16404,0.33125 -0.24077,0.49979 -0.15611,0.33708 -0.31221,0.67681 -0.46038,1.02235 -0.0741,0.17145 -0.14816,0.34581 -0.2196,0.51991 -0.0741,0.17436 -0.14552,0.35137 -0.21431,0.52546 -0.0635,0.15134 -0.11907,0.30295 -0.17992,0.4572 -0.0767,0.20267 -0.15346,0.40534 -0.23019,0.61119 -0.0661,0.17992 -0.13229,0.35692 -0.19844,0.53975 -0.008,0.0198 -0.0132,0.0429 -0.0238,0.0627 -0.0556,0.16007 -0.11377,0.31988 -0.16669,0.47995 -0.12964,0.37121 -0.25664,0.74533 -0.381,1.12236 -0.0556,0.17436 -0.11112,0.35137 -0.16668,0.52547 -0.0582,0.18573 -0.11642,0.36856 -0.17463,0.5543 -0.10848,0.3511 -0.21431,0.70247 -0.3175,1.05092 -0.005,0.0201 -0.0106,0.0429 -0.0185,0.063 -0.0529,0.18548 -0.10848,0.37412 -0.16139,0.55986 -0.003,0.003 -0.003,0.006 -0.003,0.008 -0.0529,0.18283 -0.10319,0.36565 -0.15875,0.55113 -0.0688,0.23706 -0.12965,0.47413 -0.19579,0.7112 -0.037,0.13705 -0.0741,0.27146 -0.10848,0.4056 -0.0212,0.0743 -0.0397,0.15134 -0.0635,0.22569 -0.127,0.4826 -0.25665,0.96547 -0.38365,1.44516 -0.1217,0.46831 -0.24076,0.93397 -0.36141,1.39382 -0.0513,0.19712 -0.10001,0.39423 -0.15134,0.58843 -0.15717,0.6141 -0.31406,1.22238 -0.46832,1.81928 -0.0458,0.17701 -0.0915,0.35137 -0.13732,0.52546 -0.0828,0.31724 -0.16827,0.6313 -0.25108,0.9398 -0.0516,0.1913 -0.10293,0.3855 -0.15717,0.57415 -0.18865,0.68262 -0.37703,1.34514 -0.57414,1.98781 -0.0429,0.14552 -0.0886,0.29131 -0.1315,0.43418 -0.0312,0.10266 -0.0656,0.20267 -0.0971,0.3056 -0.0257,0.0857 -0.0542,0.17409 -0.0828,0.25691 -0.0913,0.27993 -0.18256,0.55695 -0.27993,0.8255 -0.0997,0.2913 -0.20267,0.57414 -0.30824,0.85116 -0.006,0.0143 -0.0116,0.0286 -0.0143,0.0429 -0.0487,0.12568 -0.0971,0.24554 -0.14579,0.3683 -0.0429,0.10584 -0.0857,0.21141 -0.12859,0.31433 -0.0114,0.0257 -0.0228,0.0572 -0.0341,0.0828 -0.0487,0.11986 -0.10292,0.23707 -0.15425,0.35693 -0.003,0.009 -0.009,0.0201 -0.0143,0.0286 -0.0572,0.12568 -0.1143,0.25136 -0.17145,0.37412 -0.0572,0.12277 -0.1143,0.24289 -0.17409,0.35984 -0.0429,0.0886 -0.0857,0.17436 -0.1315,0.26008 -0.0199,0.04 -0.04,0.0799 -0.0627,0.11695 -0.0571,0.10292 -0.11139,0.20293 -0.16854,0.30295 -0.0257,0.0484 -0.0542,0.0942 -0.0802,0.13996 -0.0341,0.0598 -0.0712,0.11986 -0.10848,0.17992 -4.90405,7.98009 -18.84759,7.69143 -18.84759,7.69143 h -6.74052 c 0.70829,-0.0429 13.80384,-0.67124 18.47347,-20.24724 3.15886,-13.22096 11.72818,-14.00651 16.77907,-15.03759 z"
       fill="#f4c8af"
       id="path184"
       style="stroke-width:0.264583" />
    <path
       d="m 117.64753,167.51592 v -13.40379 c 0,-4.17857 -3.38746,-7.56603 -7.56603,-7.56603 h -9.56521 v 63.74924 h 12.26158 4.86966 15.12887 v -27.65028 c 0,-4.17857 -3.38719,-7.56603 -7.56576,-7.56603 -4.17565,0.003 -7.56311,-3.38455 -7.56311,-7.56311 z"
       fill="#dceceb"
       id="path186"
       style="stroke-width:0.264583" />
    <path
       d="m 115.60812,194.1076 c -2.91888,-5.56948 -6.43784,-9.54246 -12.16157,-14.03799 -5.720825,-4.49554 -13.218065,-4.51565 -16.277165,-5.96371 -3.06176,-1.45098 -3.13876,2.56487 -2.18784,6.33492 0.95117,3.77004 -1.93649,21.12989 15.451925,26.64777 17.38525,5.52106 17.33101,-8.87095 15.17465,-12.98099 z"
       fill="#f2d6c8"
       id="path188"
       style="stroke-width:0.264583" />
    <path
       d="m 104.62606,197.85225 c -0.12832,0 -0.23971,-0.0942 -0.25691,-0.22542 -0.83397,-6.14654 2.2135,-12.21873 2.24499,-12.27852 0.0656,-0.12859 0.22278,-0.18018 0.3511,-0.1143 0.12859,0.0656 0.18018,0.22278 0.1143,0.35136 -0.0312,0.0598 -3.0017,5.99202 -2.19339,11.97002 0.0198,0.14287 -0.0799,0.27411 -0.22278,0.29422 -0.0143,0.003 -0.0257,0.003 -0.0373,0.003 z"
       fill="#f5b89b"
       id="path190"
       style="stroke-width:0.264583" />
    <path
       d="m 104.67183,198.54017 c -0.04,0 -0.0828,-0.008 -0.11985,-0.0286 -5.181075,-2.72177 -14.186705,-1.74783 -14.277985,-1.73646 -0.14287,0.0143 -0.27146,-0.0857 -0.28839,-0.23124 -0.0172,-0.14288 0.0857,-0.27147 0.23124,-0.2884 0.37703,-0.0429 9.25672,-1.00277 14.577755,1.79361 0.12859,0.0656 0.17701,0.22569 0.10848,0.35137 -0.0484,0.0884 -0.13705,0.1397 -0.23125,0.1397 z"
       fill="#f5b89b"
       id="path192"
       style="stroke-width:0.264583" />
    <path
       d="m 106.2969,203.53841 c -0.11694,0 -0.22568,-0.0802 -0.25426,-0.20002 -3.73301,-15.42045 -18.530625,-26.31652 -18.679055,-26.425 -0.11721,-0.0857 -0.14288,-0.24844 -0.0571,-0.36565 0.0857,-0.11721 0.24844,-0.14288 0.36565,-0.0572 0.15135,0.10848 15.100305,11.11911 18.879085,26.72503 0.0341,0.13996 -0.0513,0.27993 -0.19129,0.31406 -0.0201,0.006 -0.0429,0.009 -0.063,0.009 z"
       fill="#f5b89b"
       id="path194"
       style="stroke-width:0.264583" />
    <path
       d="m 99.307935,189.07523 c -0.0572,0 -0.11404,-0.0201 -0.16272,-0.0572 -3.37873,-2.70484 -11.54456,-1.99919 -11.62447,-1.99073 -0.14578,0.0172 -0.27146,-0.0942 -0.28284,-0.23706 -0.0143,-0.14288 0.0915,-0.2712 0.23707,-0.28284 0.3429,-0.0312 8.45423,-0.73105 11.99885,2.10211 0.11139,0.0915 0.13123,0.25427 0.04,0.36566 -0.0516,0.0659 -0.12859,0.10001 -0.20584,0.10001 z"
       fill="#f5b89b"
       id="path196"
       style="stroke-width:0.264583" />
    <path
       d="m 96.597535,185.63908 c -0.10292,0 -0.19711,-0.0601 -0.23997,-0.16007 -1.05966,-2.5191 -0.4998,-6.77757 -0.47705,-6.95748 0.0201,-0.14288 0.14579,-0.24289 0.29422,-0.22278 0.14288,0.0201 0.24262,0.15134 0.22278,0.29422 -0.006,0.0429 -0.56277,4.29842 0.43974,6.68337 0.0571,0.13123 -0.006,0.28549 -0.13997,0.34264 -0.0312,0.0114 -0.0656,0.0201 -0.0998,0.0201 z"
       fill="#f5b89b"
       id="path198"
       style="stroke-width:0.264583" />
    <path
       d="m 70.14132,210.21888 c -0.49689,-5.20965 4.22143,-13.05269 19.367505,-7.95153 0,0 3.8272,-11.95599 14.349155,-11.55885 10.52221,0.39979 13.86945,10.23911 13.86945,10.23911 0,0 14.1351,-1.70788 16.1544,10.24811 0,0 -63.02375,6.54896 -63.74051,-0.97684 z"
       fill="#adccc7"
       id="path264"
       style="stroke-width:0.264583" />
    <path
       d="m 101.55637,211.11581 -0.51435,-0.0828 c 1.36525,-8.46852 -3.884355,-14.54626 -3.938595,-14.60632 l 0.39132,-0.34555 c 0.0542,0.0656 5.463915,6.32645 4.061625,15.03468 z"
       fill="#6eab9c"
       id="path266"
       style="stroke-width:0.264583" />
    <path
       d="m 101.7302,205.92919 -0.39979,-0.33708 c 0.0484,-0.0572 4.8469,-5.79517 5.66367,-9.39668 l 0.50853,0.1143 c -0.84561,3.72719 -5.57239,9.38239 -5.77241,9.61946 z"
       fill="#6eab9c"
       id="path268"
       style="stroke-width:0.264583" />
    <path
       d="m 101.50742,208.94253 c -3.747035,-0.20294 -7.068885,-4.06718 -7.205935,-4.23281 l 0.39688,-0.33708 c 0.0315,0.0399 3.31602,3.85869 6.837625,4.04998 z"
       fill="#6eab9c"
       id="path270"
       style="stroke-width:0.264583" />
    <path
       d="m 113.33191,211.39336 -0.33999,-0.39423 c 0.27146,-0.23415 6.67491,-5.73511 10.00522,-5.8293 l 0.0143,0.52255 c -3.14749,0.0857 -9.61681,5.64383 -9.67952,5.70098 z"
       fill="#6eab9c"
       id="path272"
       style="stroke-width:0.264583" />
    <path
       d="m 125.85623,210.31624 c -0.0513,-0.003 -5.15541,-0.31406 -9.28529,-1.37927 l 0.1315,-0.50562 c 4.0812,1.05384 9.13659,1.35943 9.18527,1.36525 z"
       fill="#6eab9c"
       id="path274"
       style="stroke-width:0.264583" />
    <path
       d="m 87.818135,211.0793 c -3.37317,-2.80485 -10.484905,-5.04402 -10.556345,-5.06677 l 0.15425,-0.49715 c 0.296865,0.0915 7.283195,2.29367 10.736265,5.16387 z"
       fill="#6eab9c"
       id="path276"
       style="stroke-width:0.264583" />
    <path
       d="m 85.193475,208.91131 -0.52282,-0.0143 c 0.0828,-2.8448 -1.15676,-5.08106 -1.16813,-5.10408 l 0.45402,-0.25691 c 0.0571,0.0971 1.3253,2.37913 1.23693,5.37528 z"
       fill="#6eab9c"
       id="path278"
       style="stroke-width:0.264583" />
    <path
       d="m 237.63104,40.477821 -91.82232,1.56501 -1.82509,-1.56501 v -30.1724 h 93.64741 l 1.8251,1.56514 z"
       fill="#b6d5d0"
       id="path280"
       style="stroke-width:0.264583" />
    <path
       d="m 237.63131,7.5009405 -91.82232,1.56517 -1.8251,-1.56517 V 0.72047051 h 93.64742 l 1.82509,1.56515999 z"
       fill="#b6d5d0"
       id="path282"
       style="stroke-width:0.264583" />
    <path
       d="m 239.4564,11.870701 h -93.64741 v 30.17239 h 93.64741 z"
       fill="#dceceb"
       id="path284"
       style="stroke-width:0.264583" />
    <path
       d="m 239.4564,2.2857505 h -93.64741 v 6.78333 h 93.64741 z"
       fill="#edf6f5"
       id="path286"
       style="stroke-width:0.264583" />
    <path
       d="m 163.73398,6.9438405 c 0.70035,0 1.26815,-0.56774 1.26815,-1.26812 0,-0.70036 -0.5678,-1.26815 -1.26815,-1.26815 -0.70035,0 -1.26815,0.56779 -1.26815,1.26815 0,0.70038 0.5678,1.26812 1.26815,1.26812 z"
       fill="#67a4c3"
       id="path288"
       style="stroke-width:0.264583" />
    <path
       d="m 159.03286,5.6757205 c 0,0.69977 -0.56832,1.26812 -1.26815,1.26812 -0.69956,0 -1.26814,-0.56835 -1.26814,-1.26812 0,-0.69975 0.56858,-1.26815 1.26814,-1.26815 0.70274,0 1.26815,0.5684 1.26815,1.26815 z"
       fill="#eb908b"
       id="path290"
       style="stroke-width:0.264583" />
    <path
       d="m 151.79545,6.9438405 c 0.70035,0 1.26815,-0.56774 1.26815,-1.26812 0,-0.70036 -0.5678,-1.26815 -1.26815,-1.26815 -0.70035,0 -1.26815,0.56779 -1.26815,1.26815 0,0.70038 0.5678,1.26812 1.26815,1.26812 z"
       fill="#ffaa3f"
       id="path292"
       style="stroke-width:0.264583" />
    <path
       d="m 220.63051,13.341411 c -6.66062,0 -12.05601,5.39808 -12.05601,12.05577 0,6.65763 5.3983,12.05592 12.05601,12.05592 6.66035,0 12.05574,-5.39829 12.05574,-12.05592 0,-6.65769 -5.39539,-12.05577 -12.05574,-12.05577 z m 0,19.81592 c -4.28731,0 -7.76023,-3.47584 -7.76023,-7.76015 0,-4.28707 3.47583,-7.76013 7.76023,-7.76013 4.28413,0 7.75996,3.47591 7.75996,7.76013 0,4.28431 -3.47292,7.76015 -7.75996,7.76015 z"
       fill="#b2e5e0"
       id="path294"
       style="stroke-width:0.264583" />
    <path
       d="m 232.01791,17.911061 c -2.18202,-2.1821 -5.19245,-3.52735 -8.51985,-3.52735 -6.66062,0 -12.05574,5.39811 -12.05574,12.05579 0,0.7684 0.0741,1.5222 0.2114,2.25351 1.05384,5.58086 5.95498,9.80228 11.84434,9.80228 2.20504,0 4.2672,-0.58843 6.04361,-1.61951 3.59596,-2.08783 6.01213,-5.97773 6.01213,-10.43628 0.003,-3.33314 -1.34805,-6.3492 -3.53589,-8.52844 z m -4.62968,15.24336 c -1.14538,0.66542 -2.47359,1.0451 -3.89017,1.0451 -3.79016,0 -6.94902,-2.71886 -7.62582,-6.31481 -0.0886,-0.46567 -0.13441,-0.9511 -0.13441,-1.44521 0,-4.28709 3.4761,-7.76017 7.76023,-7.76017 2.13916,0 4.07855,0.86542 5.48376,2.26779 1.4052,1.40523 2.27647,3.35026 2.27647,5.49238 0.003,2.87052 -1.55681,5.37533 -3.87006,6.71492 z"
       fill="#3fb8a9"
       id="path296"
       style="stroke-width:0.264583" />
    <path
       d="m 235.55698,26.439341 c 0,4.45844 -2.41935,8.35126 -6.0124,10.43644 l -2.15344,-3.72163 c 2.31352,-1.33958 3.87006,-3.8444 3.87006,-6.71481 0,-2.14497 -0.87101,-4.08715 -2.27621,-5.49238 l 3.03609,-3.03606 c 2.18493,2.17924 3.5359,5.1953 3.5359,8.52844 z"
       fill="#ffffff"
       id="path298"
       style="stroke-width:0.264583" />
    <path
       d="m 229.54458,36.875521 c -1.77667,1.03108 -3.83884,1.61951 -6.04361,1.61951 -5.88936,0 -10.7905,-4.22143 -11.8446,-9.80228 l 4.22143,-0.80831 c 0.67707,3.59596 3.83593,6.31481 7.62608,6.31481 1.41658,0 2.74452,-0.37967 3.88991,-1.04536 z"
       fill="#ffc945"
       id="path300"
       style="stroke-width:0.264583" />
    <path
       d="m 192.76406,17.780401 h -41.97694 v 1.95932 h 41.97694 z"
       fill="#ffffff"
       id="path302"
       style="stroke-width:0.264583" />
    <path
       d="m 192.76406,25.865441 h -41.97694 v 1.95921 h 41.97694 z"
       fill="#ffffff"
       id="path304"
       style="stroke-width:0.264583" />
    <path
       d="m 192.76406,33.954521 h -41.97694 v 1.9595 h 41.97694 z"
       fill="#ffffff"
       id="path306"
       style="stroke-width:0.264583" />
    <path
       d="m 110.74984,146.54663 h -0.78264 v -31.68332 c 0,-2.6932 2.19075,-4.88395 4.88421,-4.88395 h 3.2303 v 0.78264 h -3.2303 c -2.26218,0 -4.10157,1.83938 -4.10157,4.10131 z"
       fill="#3fb8a9"
       id="path312"
       style="stroke-width:0.264583" />
    <path
       d="m 113.9087,146.87551 h -0.78263 v -31.68333 c 0,-1.2565 1.02261,-2.27621 2.27647,-2.27621 h 5.68087 v 0.78264 h -5.68087 c -0.8255,0 -1.49384,0.67098 -1.49384,1.49357 z"
       fill="#3fb8a9"
       id="path314"
       style="stroke-width:0.264583" />
    <path
       d="m 169.51777,57.673621 c 2.75828,-2.39051 3.05673,-6.56432 0.66622,-9.32286 -2.39051,-2.75828 -6.56458,-3.05647 -9.32286,-0.66622 -2.75854,2.39051 -3.05673,6.56458 -0.66622,9.32286 2.39051,2.75854 6.56431,3.05673 9.32286,0.66622 z"
       fill="#ffffff"
       id="path320"
       style="stroke-width:0.264583" />
    <path
       d="m 207.65878,46.233031 h -29.35235 v 1.89627 h 29.35235 z"
       fill="#ffffff"
       id="path322"
       style="stroke-width:0.264583" />
    <path
       d="m 207.65878,51.836641 h -29.35261 v 1.89654 h 29.35261 z"
       fill="#ffffff"
       id="path324"
       style="stroke-width:0.264583" />
    <path
       d="m 194.5492,57.389191 h -16.24303 v 1.89627 h 16.24303 z"
       fill="#ffffff"
       id="path326"
       style="stroke-width:0.264583" />
    <path
       d="m 98.051425,127.90462 h -16.1372 v 10.96486 h 16.1372 z"
       fill="#eb908b"
       id="path328"
       style="stroke-width:0.264583" />
    <path
       d="m 87.657805,135.73391 c -0.35402,0.17118 -0.81386,0.25691 -1.38219,0.25691 -0.74268,0 -1.32529,-0.21696 -1.7481,-0.65405 -0.42545,-0.43683 -0.63685,-1.0168 -0.63685,-1.74229 0,-0.7739 0.23998,-1.39938 0.71676,-1.87933 0.47704,-0.47969 1.09696,-0.72258 1.85949,-0.72258 0.47122,0 0.86809,0.0601 1.1938,0.17992 v 1.04828 c -0.32279,-0.19421 -0.69109,-0.29131 -1.10543,-0.29131 -0.45403,0 -0.81968,0.14288 -1.09961,0.42836 -0.27967,0.28575 -0.41698,0.67125 -0.41698,1.15967 0,0.46831 0.13149,0.83979 0.39423,1.11681 0.26273,0.27702 0.617,0.41698 1.06256,0.41698 0.42545,0 0.81386,-0.10292 1.16523,-0.31141 v 0.99404 z"
       fill="#ffffff"
       id="path330"
       style="stroke-width:0.264583" />
    <path
       d="m 88.449435,135.722 v -1.07977 c 0.1942,0.16272 0.40825,0.28575 0.63685,0.36857 0.22833,0.0828 0.45984,0.12277 0.694,0.12277 0.13705,0 0.25718,-0.0114 0.35983,-0.037 0.10293,-0.0259 0.18865,-0.0601 0.25718,-0.10292 0.0685,-0.0429 0.11985,-0.0942 0.15425,-0.15425 0.0341,-0.0601 0.0513,-0.12277 0.0513,-0.19421 0,-0.0942 -0.0257,-0.17991 -0.0799,-0.25426 -0.0542,-0.0744 -0.12859,-0.14287 -0.21987,-0.20558 -0.0945,-0.063 -0.20294,-0.12277 -0.33153,-0.18283 -0.12832,-0.0572 -0.26564,-0.11721 -0.41407,-0.17991 -0.37703,-0.15717 -0.65987,-0.34846 -0.84534,-0.57706 -0.18574,-0.22543 -0.27702,-0.4998 -0.27702,-0.82233 0,-0.25135 0.0513,-0.46857 0.15134,-0.64849 0.10002,-0.17992 0.23998,-0.32835 0.41407,-0.44556 0.1741,-0.11721 0.37703,-0.20267 0.60563,-0.25717 0.22834,-0.0542 0.47123,-0.0828 0.72814,-0.0828 0.25135,0 0.47413,0.0143 0.66834,0.0458 0.1942,0.0315 0.37412,0.0773 0.5371,0.13996 v 1.00833 c -0.0802,-0.0572 -0.16854,-0.10584 -0.26564,-0.1487 -0.0942,-0.0429 -0.19421,-0.077 -0.29422,-0.10557 -0.10001,-0.0286 -0.20293,-0.0487 -0.30268,-0.063 -0.10001,-0.0143 -0.19421,-0.0198 -0.28575,-0.0198 -0.12277,0 -0.23707,0.0114 -0.33708,0.0341 -0.10001,0.023 -0.18547,0.0571 -0.25691,0.10001 -0.0685,0.0429 -0.12277,0.0945 -0.16272,0.15425 -0.0373,0.0601 -0.0571,0.12568 -0.0571,0.20003 0,0.0799 0.0198,0.15425 0.0627,0.21696 0.0429,0.063 0.10292,0.12567 0.18282,0.18282 0.0799,0.0572 0.1741,0.1143 0.28549,0.16854 0.11139,0.0542 0.23998,0.11139 0.37994,0.17145 0.1942,0.0799 0.36565,0.16563 0.51991,0.25691 0.15425,0.0916 0.28548,0.19421 0.39687,0.30851 0.11139,0.1143 0.19421,0.24553 0.25427,0.39423 0.0572,0.14843 0.0886,0.31697 0.0886,0.51408 0,0.26855 -0.0516,0.49689 -0.15425,0.67972 -0.10292,0.18282 -0.23998,0.33126 -0.41698,0.44556 -0.17436,0.1143 -0.37995,0.1942 -0.61119,0.24553 -0.23151,0.0487 -0.47705,0.0744 -0.73687,0.0744 -0.26564,0 -0.51699,-0.0228 -0.75697,-0.0685 -0.23997,-0.0458 -0.44555,-0.1143 -0.62256,-0.20267 z"
       fill="#ffffff"
       id="path332"
       style="stroke-width:0.264583" />
    <path
       d="m 92.490675,135.722 v -1.07977 c 0.19421,0.16272 0.40825,0.28575 0.63685,0.36857 0.22834,0.0828 0.45985,0.12277 0.69401,0.12277 0.13705,0 0.25691,-0.0114 0.35983,-0.037 0.10292,-0.0259 0.18865,-0.0601 0.25717,-0.10292 0.0685,-0.0429 0.11986,-0.0942 0.15426,-0.15425 0.0341,-0.0601 0.0513,-0.12277 0.0513,-0.19421 0,-0.0942 -0.0257,-0.17991 -0.0799,-0.25426 -0.0542,-0.0744 -0.12859,-0.14287 -0.22013,-0.20558 -0.0942,-0.063 -0.20267,-0.12277 -0.33126,-0.18283 -0.12859,-0.0572 -0.26564,-0.11721 -0.41407,-0.17991 -0.37703,-0.15717 -0.65987,-0.34846 -0.84535,-0.57706 -0.18573,-0.22543 -0.27702,-0.4998 -0.27702,-0.82233 0,-0.25135 0.0513,-0.46857 0.15135,-0.64849 0.0997,-0.17992 0.23971,-0.32835 0.41407,-0.44556 0.17409,-0.11721 0.37703,-0.20267 0.60537,-0.25717 0.2286,-0.0542 0.47148,-0.0828 0.72839,-0.0828 0.25136,0 0.47414,0.0143 0.66834,0.0458 0.19421,0.0315 0.37412,0.0773 0.53711,0.13996 v 1.00833 c -0.0802,-0.0572 -0.16854,-0.10584 -0.26565,-0.1487 -0.0945,-0.0429 -0.1942,-0.077 -0.29421,-0.10557 -0.10002,-0.0286 -0.20294,-0.0487 -0.30269,-0.063 -0.10001,-0.0143 -0.19447,-0.0198 -0.28575,-0.0198 -0.12276,0 -0.23706,0.0114 -0.33708,0.0341 -0.10001,0.023 -0.18547,0.0571 -0.25691,0.10001 -0.0685,0.0429 -0.12276,0.0945 -0.16298,0.15425 -0.037,0.0601 -0.0569,0.12568 -0.0569,0.20003 0,0.0799 0.0198,0.15425 0.0627,0.21696 0.0429,0.063 0.10292,0.12567 0.18283,0.18282 0.0799,0.0572 0.17409,0.1143 0.28548,0.16854 0.11139,0.0542 0.23998,0.11139 0.37995,0.17145 0.1942,0.0799 0.36565,0.16563 0.5199,0.25691 0.15425,0.0916 0.28549,0.19421 0.39688,0.30851 0.11139,0.1143 0.1942,0.24553 0.25426,0.39423 0.0572,0.14843 0.0886,0.31697 0.0886,0.51408 0,0.26855 -0.0516,0.49689 -0.15426,0.67972 -0.10292,0.18282 -0.23997,0.33126 -0.41698,0.44556 -0.17436,0.1143 -0.37994,0.1942 -0.61119,0.24553 -0.23151,0.0487 -0.47704,0.0744 -0.73713,0.0744 -0.26537,0 -0.51673,-0.0228 -0.7567,-0.0685 -0.23998,-0.0458 -0.44556,-0.1143 -0.62257,-0.20267 z"
       fill="#ffffff"
       id="path334"
       style="stroke-width:0.264583" />
    <path
       d="M 73.08031,150.68207 H 47.16094 v 11.91313 h 25.91937 z"
       fill="#b2d3e4"
       id="path336"
       style="stroke-width:0.264583" />
    <path
       d="m 54.17848,159.15059 h -1.18533 v -2.13916 h -2.1762 v 2.13916 h -1.18242 v -5.2496 h 1.18242 v 2.09365 h 2.1762 v -2.09365 h 1.18533 z"
       fill="#ffffff"
       id="path338"
       style="stroke-width:0.264583" />
    <path
       d="m 59.25425,154.86328 h -1.49649 v 4.28704 h -1.18533 v -4.28704 H 55.0815 v -0.96255 h 4.17275 z"
       fill="#ffffff"
       id="path340"
       style="stroke-width:0.264583" />
    <path
       d="m 66.1313,159.15006 h -1.16814 v -3.14166 c 0,-0.33999 0.0143,-0.71411 0.0429,-1.12528 h -0.0286 c -0.0601,0.32253 -0.11695,0.55404 -0.16563,0.69692 l -1.23111,3.57002 h -0.9652 l -1.25095,-3.53298 c -0.0344,-0.0942 -0.0886,-0.33999 -0.16562,-0.73131 h -0.0344 c 0.0315,0.517 0.0487,0.97129 0.0487,1.3626 v 2.9046 h -1.06548 v -5.2496 h 1.7309 l 1.07395,3.11309 c 0.0855,0.24871 0.14843,0.50006 0.18547,0.75115 h 0.023 c 0.0656,-0.2913 0.13414,-0.54266 0.20849,-0.75671 l 1.07395,-3.10462 h 1.68777 z"
       fill="#ffffff"
       id="path342"
       style="stroke-width:0.264583" />
    <path
       d="m 70.64138,159.15032 h -3.12764 v -5.24959 h 1.18243 v 4.29286 h 1.94521 z"
       fill="#ffffff"
       id="path344"
       style="stroke-width:0.264583" />
    <path
       d="m 113.80313,164.69678 c 0,0.68528 -0.55694,1.24222 -1.24248,1.24222 -0.68553,0 -1.24248,-0.55694 -1.24248,-1.24222 0,-0.68553 0.55695,-1.24248 1.24248,-1.24248 0.68818,0 1.24248,0.55695 1.24248,1.24248 z"
       fill="#b6d5d0"
       id="path346"
       style="stroke-width:0.264583" />
    <path
       d="m 112.56356,160.09621 c 0.68607,0 1.24248,-0.55615 1.24248,-1.24248 0,-0.68607 -0.55641,-1.24222 -1.24248,-1.24222 -0.68606,0 -1.24248,0.55615 -1.24248,1.24222 0,0.68633 0.55642,1.24248 1.24248,1.24248 z"
       fill="#b6d5d0"
       id="path348"
       style="stroke-width:0.264583" />
    <path
       d="m 112.56356,154.25262 c 0.68633,0 1.24248,-0.55615 1.24248,-1.24248 0,-0.68607 -0.55615,-1.24222 -1.24248,-1.24222 -0.68606,0 -1.24222,0.55615 -1.24222,1.24222 0,0.68633 0.55616,1.24248 1.24222,1.24248 z"
       fill="#b6d5d0"
       id="path350"
       style="stroke-width:0.264583" />
    <path
       d="m 42.08252,183.14803 h -53.19295 c 0,0 3.6587203,-8.16292 12.1015003,-4.78393 0,0 3.09604,-8.44285 10.4134897,-7.45754 7.31737,0.9853 8.72548,6.08065 8.72548,6.08065 0,0 7.88009,-3.12738 15.48025,3.20754 0,0 6.1923,-0.70538 6.47223,2.95328 z"
       fill="#edf6f5"
       id="path352"
       style="stroke-width:0.264583" />
    <path
       class="cls-1"
       d="m 169.17619,92.819541 h 40.29869 c 0,0 1.50548,-0.07937 1.50548,-1.833563 v -3.458104 h -43.39167 v 4.217458 a 1.55575,1.55575 0 0 0 1.5584,1.074209"
       id="path21"
       style="fill:#bac5f4;stroke-width:0.264583" />
    <path
       class="cls-1"
       d="m 167.58869,61.334121 -0.0265,27.51667 43.41813,-0.396875 V 60.540371 c 0,0 0.26458,-1.5875 -1.42611,-1.5875 h -40.32779 c 0,0 -1.82298,0 -1.63777,2.40507"
       id="path23"
       style="fill:#bac5f4;stroke-width:0.264583" />
    <polygon
       class="cls-1"
       points="69.1,127 93.1,128 93.1,153.4 69.1,155.9 "
       id="polygon25"
       style="fill:#bac5f4"
       transform="matrix(0.26458333,0,0,0.26458333,167.56223,58.952871)" />
    <polygon
       class="cls-1"
       points="130.73,153.03 130.79,158 31,158 31,153 "
       id="polygon27"
       style="fill:#bac5f4"
       transform="matrix(0.26458333,0,0,0.26458333,167.56223,58.952871)" />
    <path
       class="cls-2"
       d="m 188.89559,89.406416 a 1.27,1.27 0 1 1 -1.27,1.27 1.27,1.27 0 0 1 1.27,-1.27"
       id="path29"
       style="fill:#ffffff;stroke-width:0.264583" />
    <rect
       class="cls-3"
       x="168.91161"
       y="60.275795"
       width="40.745834"
       height="26.722918"
       id="rect31"
       style="fill:#f8f8ff;stroke-width:0.264583" />
    <path
       class="cls-4"
       d="m 170.95684,61.651621 a 0.635,0.635 0 1 1 -0.635,0.635 0.635,0.635 0 0 1 0.635,-0.635"
       id="path33"
       style="fill:#fa5f5d;stroke-width:0.264583" />
    <path
       class="cls-5"
       d="m 173.12642,61.651621 a 0.635,0.635 0 1 1 -0.635,0.635 0.635,0.635 0 0 1 0.635,-0.635"
       id="path35"
       style="fill:#fdbc4e;stroke-width:0.264583" />
    <path
       class="cls-6"
       d="m 175.40184,61.651621 a 0.635,0.635 0 1 1 -0.635,0.635 0.635,0.635 0 0 1 0.635,-0.635"
       id="path37"
       style="fill:#37cd58;stroke-width:0.264583" />
    <path
       class="cls-7"
       d="m 184.25744,66.295061 a 0.63235417,0.63235417 0 0 1 -0.66146,0.59531 h -7.8052 c -0.40217,0 -0.79375,-0.26458 -0.79375,-0.59531 v -1.18798 c 0,-0.33073 0.38364,-0.59796 0.79375,-0.59796 h 7.78933 a 0.635,0.635 0 0 1 0.68527,0.57415 c 0,0 0,0.0159 0,0.0238 z"
       id="path39"
       style="fill:url(#linear-gradient);stroke-width:0.264583" />
    <path
       class="cls-8"
       d="m 203.04286,74.198171 a 0.6746875,0.6746875 0 0 1 -0.71702,0.6297 h -26.53506 c -0.40746,0 -0.79375,-0.28045 -0.79375,-0.6297 v -5.88434 c 0,-0.34925 0.38893,-0.62971 0.79375,-0.62971 h 26.53241 a 0.6746875,0.6746875 0 0 1 0.71967,0.62707 v 0 z"
       id="path41"
       style="fill:url(#linearGradient157);stroke-width:0.264583" />
    <path
       class="cls-9"
       d="m 183.72828,79.212021 a 0.64558333,0.64558333 0 0 1 -0.64823,0.64558 h -7.28927 c -0.41011,0 -0.79375,-0.28839 -0.79375,-0.64293 v -3.21734 c 0,-0.35189 0.39158,-0.64029 0.79375,-0.64029 h 7.24429 a 0.6429375,0.6429375 0 0 1 0.68527,0.60325 c 0,0 0,0.0238 0,0.037 z"
       id="path43"
       style="fill:url(#linear-gradient-3);stroke-width:0.264583" />
    <path
       class="cls-10"
       d="m 193.25328,79.212021 a 0.64029167,0.64029167 0 0 1 -0.63765,0.64558 h -7.29985 c -0.41275,0 -0.79375,-0.28839 -0.79375,-0.64293 v -3.21734 c 0,-0.35189 0.39687,-0.64029 0.79375,-0.64029 h 7.25222 a 0.64029167,0.64029167 0 0 1 0.67734,0.6006 c 0,0.0132 0,0.0265 0,0.0397 z"
       id="path45"
       style="fill:url(#linear-gradient-4);stroke-width:0.264583" />
    <path
       class="cls-11"
       d="m 203.04286,79.212021 a 0.68527083,0.68527083 0 0 1 -0.72496,0.64294 h -7.24429 a 0.714375,0.714375 0 0 1 -0.762,-0.64294 v -3.21469 a 0.714375,0.714375 0 0 1 0.762,-0.64029 h 7.24164 a 0.68527083,0.68527083 0 0 1 0.72761,0.64029 v 0 z"
       id="path47"
       style="fill:url(#linear-gradient-5);stroke-width:0.264583" />
    <path
       class="cls-12"
       d="m 193.25328,81.045581 a 0.41010417,0.41010417 0 0 1 -0.28046,0.23813 c -0.0159,0 -0.0317,0 -0.0476,-0.10584 h -8.001 c -0.16404,0.10584 -0.40746,0.0132 -0.40217,-0.13229 v -0.10319 c 0,-0.14552 0.23813,-0.26458 0.40217,-0.29368 h 8.001 a 0.30691667,0.30691667 0 0 1 0.24606,0.24871 c 0,0.0159 0,0.0291 0.082,0.045 z"
       id="path49"
       style="fill:#e9edfb;stroke-width:0.264583" />
    <path
       class="cls-12"
       d="m 193.25328,82.088041 a 0.42333333,0.42333333 0 0 1 -0.29105,0.26458 c 0,0 -0.0238,0 -0.037,-0.11377 h -8.001 c -0.16404,0.11642 -0.40745,0 -0.40216,-0.14816 v -0.11907 c 0,-0.14287 0.23812,-0.22489 0.40216,-0.26458 h 8.001 a 0.52916667,0.52916667 0 0 1 0.32809,0.26458 z"
       id="path51"
       style="fill:#e9edfb;stroke-width:0.264583" />
    <path
       class="cls-12"
       d="m 193.25328,83.133145 a 0.44185417,0.44185417 0 0 1 -0.32544,0.28575 0.60589583,0.60589583 0 0 1 0,-0.124354 h -8.001 a 0.26458333,0.26458333 0 0 1 -0.40217,-0.161396 v -0.103188 c 0,-0.142875 0.23813,-0.201083 0.40217,-0.264583 h 8.001 a 0.52916667,0.52916667 0 0 1 0.32808,0.264583 z"
       id="path53"
       style="fill:#e9edfb;stroke-width:0.264583" />
    <path
       class="cls-12"
       d="m 193.25328,84.175603 a 1.3414375,1.3414375 0 0 1 -0.32809,0.441854 h -8.001 c -0.16404,-0.132291 -0.40746,-0.296333 -0.40216,-0.441854 v -0.103187 c 0,-0.145521 0.23812,-0.29898 0.40216,-0.248709 h 8.001 a 0.20372917,0.20372917 0 0 1 0.24871,0.230188 c 0,0 0,0 0.0794,0.01852 z"
       id="path55"
       style="fill:#e9edfb;stroke-width:0.264583" />
    <path
       class="cls-12"
       d="m 188.81357,85.218061 c 0,0.129646 -0.0873,0.193146 -0.23813,0.193146 h -3.683 c -0.14816,0 -0.36777,-0.0635 -0.36777,-0.193146 v -0.09525 c 0,-0.129645 0.21961,-0.238125 0.36777,-0.238125 h 3.68565 a 0.238125,0.238125 0 0 1 0.23812,0.238125 z"
       id="path57"
       style="fill:#e9edfb;stroke-width:0.264583" />
    <path
       class="cls-12"
       d="m 203.04286,81.045581 c -0.15081,0.14552 -0.12436,0.23813 -0.2884,0.13229 h -8.00364 c -0.13494,0.11642 -0.26459,0.0185 -0.26459,-0.11641 0,0 0,0 0.09,-0.0159 v -0.10319 c -0.082,-0.14023 0.0344,-0.26458 0.17463,-0.29369 h 8.00364 c 0.16405,0.0423 0.13759,0.14817 0.2884,0.29369 z"
       id="path59"
       style="fill:#e9edfb;stroke-width:0.264583" />
    <path
       class="cls-12"
       d="m 203.04286,82.088041 c -0.15081,0.14552 -0.12436,0.26458 -0.2884,0.14817 h -8.00364 c -0.14552,0.11641 -0.26459,0 -0.17463,-0.14817 v -0.11642 c -0.09,-0.14287 0.0212,-0.22489 0.17463,-0.26458 h 8.00364 c 0.16404,0.0529 0.13759,0.13494 0.2884,0.26458 z"
       id="path61"
       style="fill:#e9edfb;stroke-width:0.264583" />
    <path
       class="cls-12"
       d="m 203.04286,83.133145 c -0.15081,0.142875 -0.12436,0.28575 -0.2884,0.161396 h -8.00364 c -0.15082,0.11377 -0.26459,0 -0.17463,-0.161396 v -0.103188 c -0.09,-0.142875 0.0212,-0.201083 0.17463,-0.264583 h 8.00364 c 0.16404,0.06085 0.13759,0.119062 0.2884,0.264583 z"
       id="path63"
       style="fill:#e9edfb;stroke-width:0.264583" />
    <path
       class="cls-12"
       d="m 203.04286,84.175603 c -0.15081,0.145521 -0.12436,0.309563 -0.2884,0.441854 h -8.00364 c -0.15611,-0.150812 -0.26459,-0.28575 -0.17463,-0.441854 v -0.103187 a 0.15610417,0.15610417 0 0 1 0.17463,-0.248709 h 8.00364 c 0.16404,-0.05027 0.13759,0.103188 0.2884,0.248709 z"
       id="path65"
       style="fill:#e9edfb;stroke-width:0.264583" />
    <path
       class="cls-12"
       d="m 198.64284,85.218061 c 0,0.129646 0,0.193146 -0.14023,0.193146 h -3.68829 c -0.14817,0 -0.23813,-0.0635 -0.23813,-0.193146 v -0.09525 a 0.238125,0.238125 0 0 1 0.23813,-0.238125 h 3.683 c 0.14816,0 0.14023,0.116417 0.14023,0.238125 z"
       id="path67"
       style="fill:#e9edfb;stroke-width:0.264583" />
    <path
       class="cls-12"
       d="m 183.46369,81.045581 c 0.10319,0.14552 0.045,0.23813 -0.11906,0.13229 h -8.00365 a 0.2143125,0.2143125 0 0 1 -0.34395,-0.13229 v -0.10319 a 0.4524375,0.4524375 0 0 1 0.34395,-0.29368 h 8.00365 c 0.16404,0.0423 0.22225,0.14816 0.11906,0.29368 z"
       id="path69"
       style="fill:#e9edfb;stroke-width:0.264583" />
    <path
       class="cls-12"
       d="m 183.46369,82.088041 c 0.10319,0.14552 0.045,0.26458 -0.11906,0.14817 h -8.00365 c -0.15875,0.12435 -0.29368,0 -0.34395,-0.14817 v -0.11642 c 0.0344,-0.14287 0.17991,-0.22489 0.34395,-0.26458 h 8.00365 c 0.16404,0.0529 0.22225,0.13494 0.11906,0.26458 z"
       id="path71"
       style="fill:#e9edfb;stroke-width:0.264583" />
    <path
       class="cls-12"
       d="m 183.46369,83.133145 c 0.10319,0.142875 0.045,0.28575 -0.11906,0.161396 h -8.00365 c -0.16139,0.121708 -0.29368,0 -0.34395,-0.161396 v -0.103188 c 0.0344,-0.142875 0.17991,-0.201083 0.34395,-0.264583 h 8.00365 c 0.16404,0.06085 0.22225,0.119062 0.11906,0.264583 z"
       id="path73"
       style="fill:#e9edfb;stroke-width:0.264583" />
    <path
       class="cls-12"
       d="m 181.08244,83.823707 h 2.26219 c 0.16404,-0.05027 0.22225,0.103188 0.11906,0.248709 v 0.103187 c 0.10319,0.145521 0.045,0.309563 -0.11906,0.441854 h -8.00365 a 0.98160417,0.98160417 0 0 1 -0.34395,-0.441854 v -0.103187 a 0.29633333,0.29633333 0 0 1 0.34395,-0.248709 h 5.74146"
       id="path75"
       style="fill:#e9edfb;stroke-width:0.264583" />
    <path
       class="cls-12"
       d="m 179.49494,85.218061 c 0,0.129646 -0.0741,0.193146 -0.23548,0.193146 h -3.96875 c -0.15875,0 -0.30162,-0.0635 -0.30162,-0.193146 v -0.09525 a 0.28839583,0.28839583 0 0 1 0.30162,-0.238125 h 3.96875 a 0.22754167,0.22754167 0 0 1 0.23548,0.22225 c 0,0 0,0 0,0.01852 z"
       id="path77"
       style="fill:#e9edfb;stroke-width:0.264583" />
  </g>
</svg>
