<?xml version="1.0" encoding="UTF-8" standalone="no"?>
<svg
   xmlns:dc="http://purl.org/dc/elements/1.1/"
   xmlns:cc="http://creativecommons.org/ns#"
   xmlns:rdf="http://www.w3.org/1999/02/22-rdf-syntax-ns#"
   xmlns:svg="http://www.w3.org/2000/svg"
   xmlns="http://www.w3.org/2000/svg"
   xmlns:xlink="http://www.w3.org/1999/xlink"
   xmlns:sodipodi="http://sodipodi.sourceforge.net/DTD/sodipodi-0.dtd"
   xmlns:inkscape="http://www.inkscape.org/namespaces/inkscape"
   version="1.1"
   id="Layer_1"
   x="0px"
   y="0px"
   viewBox="0 0 1088.7 607.2"
   style="enable-background:new 0 0 1088.7 607.2;"
   xml:space="preserve"
   sodipodi:docname="steps2.svg"
   inkscape:version="1.0.1 (3bc2e813f5, 2020-09-07)"><metadata
   id="metadata254"><rdf:RDF><cc:Work
       rdf:about=""><dc:format>image/svg+xml</dc:format><dc:type
         rdf:resource="http://purl.org/dc/dcmitype/StillImage" /><dc:title>bg11</dc:title></cc:Work></rdf:RDF></metadata><defs
   id="defs252"><linearGradient
     id="SVGID_8_"
     gradientUnits="userSpaceOnUse"
     x1="0"
     y1="-585.75"
     x2="219.8"
     y2="-585.75"
     gradientTransform="matrix(0.56334178,0,0,-0.59026502,30.471879,194.41041)"><stop
       offset="0"
       style="stop-color:#93FD93"
       id="stop49" /><stop
       offset="1"
       style="stop-color:#21C2C1"
       id="stop51" /></linearGradient><linearGradient
     id="SVGID_7_"
     gradientUnits="userSpaceOnUse"
     x1="0"
     y1="-453.89999"
     x2="219.8"
     y2="-453.89999"
     gradientTransform="matrix(0.12890171,0,0,-0.19774743,-182.69468,415.79763)"><stop
       offset="0"
       style="stop-color:#21C2C1"
       id="stop42" /><stop
       offset="1"
       style="stop-color:#84F599"
       id="stop44" /></linearGradient><linearGradient
     id="SVGID_5_"
     gradientUnits="userSpaceOnUse"
     x1="4.1999998"
     y1="111.5"
     x2="219"
     y2="111.5"
     gradientTransform="matrix(0.56334178,0,0,0.59026502,30.471879,397.46157)"><stop
       offset="0"
       style="stop-color:#21C2C1"
       id="stop30" /><stop
       offset="1"
       style="stop-color:#84F599"
       id="stop32" /></linearGradient><linearGradient
     id="SVGID_6_"
     gradientUnits="userSpaceOnUse"
     x1="3.7"
     y1="256.5"
     x2="219.5"
     y2="256.5"
     gradientTransform="matrix(0.56334178,0,0,-0.59026502,30.471879,614.6791)"><stop
       offset="0"
       style="stop-color:#21C2C1"
       id="stop35" /><stop
       offset="1"
       style="stop-color:#84F599"
       id="stop37" /></linearGradient><linearGradient
     id="SVGID_3_"
     gradientUnits="userSpaceOnUse"
     x1="852.66248"
     y1="-995.02191"
     x2="1058.792"
     y2="-995.02191"
     gradientTransform="matrix(1.0012,-0.00467804,-0.00467804,-1.0012,-823.7786,-720.795)"><stop
       offset="0"
       style="stop-color:#93FD93"
       id="stop16" /><stop
       offset="1"
       style="stop-color:#21C2C1"
       id="stop18" /></linearGradient><linearGradient
     id="SVGID_4_"
     gradientUnits="userSpaceOnUse"
     x1="851.95758"
     y1="-995.02222"
     x2="1059.4965"
     y2="-995.02222"
     gradientTransform="matrix(1.0012,-0.00467804,-0.00467804,-1.0012,-823.7786,-720.795)"><stop
       offset="0"
       style="stop-color:#21C2C1"
       id="stop21" /><stop
       offset="1"
       style="stop-color:#84F599"
       id="stop23" /></linearGradient><linearGradient
     id="SVGID_1_"
     gradientUnits="userSpaceOnUse"
     x1="250.52229"
     y1="324.2153"
     x2="199.69189"
     y2="27.6402"><stop
       offset="0"
       style="stop-color:#21C2C1"
       id="stop4" /><stop
       offset="1"
       style="stop-color:#84F599"
       id="stop6" /></linearGradient><linearGradient
     id="SVGID_2_"
     gradientUnits="userSpaceOnUse"
     x1="-897.06769"
     y1="-1677.9274"
     x2="-589.47552"
     y2="-1677.9274"
     gradientTransform="matrix(-0.1691,-0.9868,-0.9868,0.1691,-1556.1163,-272.3068)"><stop
       offset="0"
       style="stop-color:#21C2C1"
       id="stop9" /><stop
       offset="1"
       style="stop-color:#84F599"
       id="stop11" /></linearGradient><linearGradient
     id="linear-gradient-5"
     x1="1111"
     y1="406.5"
     y2="406.5"
     xlink:href="#linear-gradient-2"
     gradientTransform="translate(-392.09313,-214.03453)" /><linearGradient
     id="linear-gradient-2"
     x1="1038"
     y1="382.5"
     x2="1144"
     y2="382.5"
     gradientUnits="userSpaceOnUse"><stop
       offset="0"
       stop-color="#93fd94"
       id="stop9-9" /><stop
       offset="1"
       stop-color="#21c4c0"
       id="stop11-1" /></linearGradient><linearGradient
     id="linear-gradient-4"
     x1="1074"
     y1="406.5"
     x2="1107"
     y2="406.5"
     xlink:href="#linear-gradient-2"
     gradientTransform="translate(-392.09313,-214.03453)" /><linearGradient
     id="linear-gradient-3"
     y1="406.5"
     x2="1071"
     y2="406.5"
     xlink:href="#linear-gradient-2"
     gradientTransform="translate(-392.09313,-214.03453)" /><linearGradient
     id="linear-gradient"
     x1="1038"
     y1="361.5"
     x2="1073"
     y2="361.5"
     gradientUnits="userSpaceOnUse"
     gradientTransform="translate(-392.09313,-214.03453)"><stop
       offset="0"
       stop-color="#f71d69"
       id="stop4-2" /><stop
       offset="1"
       stop-color="#f8c648"
       id="stop6-7" /></linearGradient><linearGradient
     id="SVGID_1_-2"
     gradientUnits="userSpaceOnUse"
     x1="1315.1656"
     y1="1171.5818"
     x2="1342.3239"
     y2="1171.5818"
     gradientTransform="translate(-1009.9,-968)"><stop
       offset="0"
       style="stop-color:#F71D69"
       id="stop59" /><stop
       offset="1"
       style="stop-color:#F8C648"
       id="stop61" /></linearGradient><linearGradient
     id="SVGID_2_-6"
     gradientUnits="userSpaceOnUse"
     x1="1315.1656"
     y1="1187.8767"
     x2="1397.4163"
     y2="1187.8767"
     gradientTransform="translate(-1009.9,-968)"><stop
       offset="0"
       style="stop-color:#93FD94"
       id="stop66" /><stop
       offset="1"
       style="stop-color:#21C4C0"
       id="stop68" /></linearGradient><linearGradient
     id="SVGID_3_-1"
     gradientUnits="userSpaceOnUse"
     x1="1315.1656"
     y1="1206.4968"
     x2="1340.772"
     y2="1206.4968"
     gradientTransform="translate(-1009.9,-968)"><stop
       offset="0"
       style="stop-color:#93FD94"
       id="stop73" /><stop
       offset="1"
       style="stop-color:#21C4C0"
       id="stop75" /></linearGradient><linearGradient
     id="SVGID_4_-8"
     gradientUnits="userSpaceOnUse"
     x1="1343.0997"
     y1="1206.4968"
     x2="1368.7061"
     y2="1206.4968"
     gradientTransform="translate(-1009.9,-968)"><stop
       offset="0"
       style="stop-color:#93FD94"
       id="stop80" /><stop
       offset="1"
       style="stop-color:#21C4C0"
       id="stop82" /></linearGradient><linearGradient
     id="SVGID_5_-7"
     gradientUnits="userSpaceOnUse"
     x1="1371.8099"
     y1="1206.4993"
     x2="1397.4163"
     y2="1206.4993"
     gradientTransform="translate(-1009.9,-968)"><stop
       offset="0"
       style="stop-color:#93FD94"
       id="stop87" /><stop
       offset="1"
       style="stop-color:#21C4C0"
       id="stop89" /></linearGradient><linearGradient
     id="SVGID_14_-9"
     gradientUnits="userSpaceOnUse"
     x1="955.23352"
     y1="-813.5379"
     x2="1071.9446"
     y2="-722.73071"
     gradientTransform="matrix(1,0,0,-1,-867.60507,-509.67229)"><stop
       offset="6.775068e-04"
       style="stop-color:#93DF93"
       id="stop187" /><stop
       offset="0.9993"
       style="stop-color:#21C2C1"
       id="stop189" /></linearGradient><linearGradient
     id="SVGID_15_-2"
     gradientUnits="userSpaceOnUse"
     x1="1011.5797"
     y1="-744.61682"
     x2="1075.818"
     y2="-744.61682"
     gradientTransform="matrix(1,0,0,-1,-868,-507.5)"><stop
       offset="0"
       style="stop-color:#7A5BF5"
       id="stop194" /><stop
       offset="1"
       style="stop-color:#805FF5"
       id="stop196" /></linearGradient><linearGradient
     id="SVGID_16_-0"
     gradientUnits="userSpaceOnUse"
     x1="149.93269"
     y1="-426.00562"
     x2="201.4375"
     y2="-426.00562"
     gradientTransform="matrix(1,0,0,-1,0,-188)"><stop
       offset="0"
       style="stop-color:#7A5BF5"
       id="stop205" /><stop
       offset="1"
       style="stop-color:#805FF5"
       id="stop207" /></linearGradient><linearGradient
     id="SVGID_17_"
     gradientUnits="userSpaceOnUse"
     x1="170.5979"
     y1="-374.68201"
     x2="179.8698"
     y2="-374.68201"
     gradientTransform="matrix(1,0,0,-1,0,-188)"><stop
       offset="0"
       style="stop-color:#7A5BF5"
       id="stop212" /><stop
       offset="1"
       style="stop-color:#805FF5"
       id="stop214" /></linearGradient><linearGradient
     id="SVGID_18_"
     gradientUnits="userSpaceOnUse"
     x1="170.0979"
     y1="-374.68201"
     x2="180.3698"
     y2="-374.68201"
     gradientTransform="matrix(1,0,0,-1,0,-188)"><stop
       offset="0"
       style="stop-color:#7A5BF5"
       id="stop217" /><stop
       offset="1"
       style="stop-color:#805FF5"
       id="stop219" /></linearGradient><linearGradient
     id="SVGID_19_"
     gradientUnits="userSpaceOnUse"
     x1="174.3996"
     y1="-370.1691"
     x2="176.13091"
     y2="-370.1691"
     gradientTransform="matrix(1,0,0,-1,0,-188)"><stop
       offset="0"
       style="stop-color:#7A5BF5"
       id="stop224" /><stop
       offset="1"
       style="stop-color:#805FF5"
       id="stop226" /></linearGradient><linearGradient
     id="SVGID_20_"
     gradientUnits="userSpaceOnUse"
     x1="1040.4578"
     y1="-797.97803"
     x2="1046.2178"
     y2="-797.97803"
     gradientTransform="matrix(1,0,0,-1,-868,-507.5)"><stop
       offset="0"
       style="stop-color:#7A5BF5"
       id="stop231" /><stop
       offset="1"
       style="stop-color:#805FF5"
       id="stop233" /></linearGradient><linearGradient
     id="SVGID_21_"
     gradientUnits="userSpaceOnUse"
     x1="1039.9578"
     y1="-797.97803"
     x2="1046.7197"
     y2="-797.97803"
     gradientTransform="matrix(1,0,0,-1,-868,-507.5)"><stop
       offset="0"
       style="stop-color:#7A5BF5"
       id="stop236-2" /><stop
       offset="1"
       style="stop-color:#805FF5"
       id="stop238" /></linearGradient><linearGradient
     id="SVGID_22_"
     gradientUnits="userSpaceOnUse"
     x1="171.4577"
     y1="-478.478"
     x2="179.2216"
     y2="-478.478"
     gradientTransform="matrix(1,0,0,-1,0,-188)"><stop
       offset="0"
       style="stop-color:#7A5BF5"
       id="stop243-3" /><stop
       offset="1"
       style="stop-color:#805FF5"
       id="stop245" /></linearGradient><linearGradient
     inkscape:collect="always"
     xlink:href="#SVGID_1_"
     id="linearGradient910"
     gradientUnits="userSpaceOnUse"
     x1="250.52229"
     y1="324.2153"
     x2="199.69189"
     y2="27.6402" /><linearGradient
     inkscape:collect="always"
     xlink:href="#SVGID_2_"
     id="linearGradient912"
     gradientUnits="userSpaceOnUse"
     gradientTransform="matrix(-0.1691,-0.9868,-0.9868,0.1691,-1556.1163,-272.3068)"
     x1="-897.06769"
     y1="-1677.9274"
     x2="-589.47552"
     y2="-1677.9274" /><linearGradient
     inkscape:collect="always"
     xlink:href="#SVGID_4_"
     id="linearGradient914"
     gradientUnits="userSpaceOnUse"
     gradientTransform="matrix(1.0012,-0.00467804,-0.00467804,-1.0012,-823.7786,-720.795)"
     x1="851.95758"
     y1="-995.02222"
     x2="1059.4965"
     y2="-995.02222" /><linearGradient
     inkscape:collect="always"
     xlink:href="#SVGID_11_"
     id="linearGradient916"
     gradientUnits="userSpaceOnUse"
     gradientTransform="translate(-785.59,-907.73)"
     x1="1193.5304"
     y1="1335.1282"
     x2="1220.4309"
     y2="1335.1282" /></defs><sodipodi:namedview
   pagecolor="#ffffff"
   bordercolor="#666666"
   borderopacity="1"
   objecttolerance="10"
   gridtolerance="10"
   guidetolerance="10"
   inkscape:pageopacity="0"
   inkscape:pageshadow="2"
   inkscape:window-width="1920"
   inkscape:window-height="1173"
   id="namedview250"
   showgrid="false"
   inkscape:zoom="1.2104743"
   inkscape:cx="544.34998"
   inkscape:cy="303.60001"
   inkscape:window-x="0"
   inkscape:window-y="-10"
   inkscape:window-maximized="1"
   inkscape:current-layer="Layer_1"
   inkscape:document-rotation="0" />
<style
   type="text/css"
   id="style2">
	.st0{fill:#F8F8FF;}
	.st1{fill:#F5F5FC;}
	.st2{fill:#BAC6F2;}
	.st3{fill:#FFFFFF;}
	.st4{fill:none;stroke:#FFFFFF;stroke-width:3;stroke-linecap:round;stroke-linejoin:round;}
	.st5{fill:none;stroke:#FFFFFF;stroke-width:3;stroke-miterlimit:10;}
	.st6{fill:url(#SVGID_1_);}
	.st7{fill:none;stroke:#F93764;stroke-width:4;stroke-linecap:round;stroke-miterlimit:10;}
	.st8{fill:#F7B14A;}
	.st9{fill:none;stroke:url(#SVGID_2_);stroke-linecap:round;stroke-linejoin:round;}
	.st10{fill:url(#SVGID_3_);}
	.st11{fill:none;stroke:url(#SVGID_4_);stroke-miterlimit:10;}
	.st12{fill:#F9B449;}
	.st13{font-family:'ArialMT';}
	.st14{font-size:26.71px;}
	.st15{fill:url(#SVGID_5_);}
	.st16{fill:none;stroke:url(#SVGID_6_);stroke-miterlimit:10;}
	.st17{font-size:17.58px;}
	.st18{fill:url(#SVGID_7_);}
	.st19{fill:none;stroke:url(#SVGID_8_);stroke-miterlimit:10;}
	.st20{font-size:12.58px;}
	.st21{fill:url(#SVGID_9_);}
	.st22{fill:url(#SVGID_10_);}
	.st23{fill:#7A5BF5;}
	.st24{fill:url(#SVGID_11_);}
	.st25{fill:#FCFCFC;}
	.st26{fill:#58CAEA;}
	.st27{fill:url(#SVGID_12_);}
	.st28{fill:url(#SVGID_13_);}
	.st29{fill:url(#SVGID_14_);}
	.st30{fill:url(#SVGID_15_);}
	.st31{fill:url(#SVGID_16_);}
</style>
<title
   id="title4">bg11</title>
<g
   id="bg"
   transform="translate(1.9013322,-14.590536)">
	<path
   class="st0"
   d="M 25.4,258.3 C 13,200.9 39,136.4 93.4,114.3 c 42.8,-17.4 108.3,-23.2 196,-2 232,56 212,-8 302,-58 79.2,-44 176,-98 344,4 127.4,77.4 52,198 138,272 55.3,47.6 -38,278 -306,228 -268,-50 -328.7,20.2 -450,46 -122,26 -373.9,-128.7 -306,-200 40,-42 21.8,-110 14,-146 z"
   id="path6" />
	<path
   class="st1"
   d="M 94.9,272.3 C 84.3,223 106.6,167.5 153.4,148.5 c 36.8,-15 93.1,-19.9 168.5,-1.7 199.4,48.1 182.2,-6.9 259.6,-49.9 68.1,-37.8 151.3,-84.2 295.7,3.4 109.5,66.5 44.7,170.2 118.6,233.8 47.5,40.9 -32.7,239 -263,196 C 502.5,487.1 450.3,547.4 346,569.6 241,592 24.4,459.1 82.8,397.8 117.2,361.7 101.5,303.3 94.9,272.3 Z"
   id="path8" />
	<path
   class="st2"
   d="m 172.7,275.4 c -9.1,-42.2 10,-89.7 50,-106 31.5,-12.8 79.7,-17 144.3,-1.5 170.8,41.2 156,-5.9 222.3,-42.7 58.3,-32.4 129.5,-72.1 253.2,2.9 93.8,56.9 38.3,145.7 101.6,200.2 40.7,35 -28,204.6 -225.2,167.8 C 521.7,459.3 476.9,511 387.6,530 297.8,549.1 112.4,435.3 162.4,382.8 c 29.5,-30.9 16,-80.9 10.3,-107.4 z"
   id="path10" />
</g>
<g
   id="Elippses">
	<circle
   class="st3"
   cx="204.4"
   cy="300.3"
   r="8"
   id="circle13" />
	<circle
   class="st3"
   cx="266.9"
   cy="251.8"
   r="4.5"
   id="circle15" />
	<circle
   class="st3"
   cx="282.4"
   cy="373.3"
   r="5"
   id="circle17" />
	<circle
   class="st3"
   cx="239.9"
   cy="442.8"
   r="5.5"
   id="circle19" />
	<circle
   class="st3"
   cx="366.9"
   cy="465.8"
   r="5.5"
   id="circle21" />
	<circle
   class="st3"
   cx="604.4"
   cy="463.3"
   r="6"
   id="circle23" />
	<circle
   class="st3"
   cx="702.9"
   cy="334.8"
   r="5.5"
   id="circle25" />
	<circle
   class="st3"
   cx="778.4"
   cy="260.3"
   r="4"
   id="circle27" />
	<circle
   class="st3"
   cx="839.9"
   cy="276.8"
   r="5.5"
   id="circle29" />
	<circle
   class="st3"
   cx="885.4"
   cy="207.3"
   r="5"
   id="circle31" />
	<circle
   class="st3"
   cx="876.4"
   cy="410.3"
   r="5"
   id="circle33" />
	<circle
   class="st3"
   cx="793.9"
   cy="471.8"
   r="5.5"
   id="circle35" />
	<circle
   class="st3"
   cx="494.4"
   cy="397.3"
   r="9"
   id="circle37" />
	<circle
   class="st3"
   cx="538.4"
   cy="299.3"
   r="9"
   id="circle39" />
	<circle
   class="st3"
   cx="653.4"
   cy="256.3"
   r="9"
   id="circle41" />
	<circle
   class="st3"
   cx="652.9"
   cy="391.8"
   r="9.5"
   id="circle43" />
	<circle
   class="st3"
   cx="750.9"
   cy="378.8"
   r="9.5"
   id="circle45" />
	<circle
   class="st3"
   cx="457.4"
   cy="338.3"
   r="9"
   id="circle47" />
	<circle
   class="st3"
   cx="515.4"
   cy="418.3"
   r="9"
   id="circle49" />
	<circle
   class="st3"
   cx="580.4"
   cy="349.3"
   r="9"
   id="circle51" />
	<circle
   class="st3"
   cx="347.9"
   cy="373.8"
   r="8.5"
   id="circle53" />
	<circle
   class="st3"
   cx="433.9"
   cy="264.7"
   r="8.5"
   id="circle55" />
	<polyline
   class="st4"
   points="171.8,439.7 204.4,300.3 344.4,374.3 456.4,338.3 494.4,397.3 515.4,421.3 580.4,348.3 652.4,393.3    749.4,378.3  "
   id="polyline57" />
	<polyline
   class="st5"
   points="460.3,338.3 537.2,298.2 653.4,256.3  "
   id="polyline59" />
	<circle
   class="st3"
   cx="352.9"
   cy="202.8"
   r="4.5"
   id="circle61" />
	<circle
   class="st3"
   cx="679.4"
   cy="124.3"
   r="4"
   id="circle63" />
	<circle
   class="st3"
   cx="440.9"
   cy="222.8"
   r="4.5"
   id="circle65" />
	<circle
   class="st3"
   cx="582.4"
   cy="194.3"
   r="4"
   id="circle67" />
	<circle
   class="st3"
   cx="345.9"
   cy="296.8"
   r="3.5"
   id="circle69" />
	<circle
   class="st3"
   cx="742.4"
   cy="156.3"
   r="6"
   id="circle71" />
	<circle
   class="st3"
   cx="628.4"
   cy="211.3"
   r="4"
   id="circle73" />
	<circle
   class="st3"
   cx="224.4"
   cy="193.3"
   r="5"
   id="circle75" />
	<circle
   class="st3"
   cx="820.4"
   cy="338.3"
   r="5"
   id="circle77" />
	<polyline
   class="st5"
   points="876.4,410.3 820.4,338.3 839.4,276.3 778.4,260.3  "
   id="polyline79" />
	<line
   class="st4"
   x1="433.9"
   y1="264.7"
   x2="456.4"
   y2="338.3"
   id="line81" />
</g>


<g
   id="Calendar">
	<title
   id="title184">Calendar</title>
	
		<linearGradient
   id="SVGID_11_"
   gradientUnits="userSpaceOnUse"
   x1="1193.5304"
   y1="1335.1282"
   x2="1220.4309"
   y2="1335.1282"
   gradientTransform="matrix(1 0 0 1 -785.59 -907.73)">
		<stop
   offset="0"
   style="stop-color:#58CAEA"
   id="stop186" />
		<stop
   offset="1"
   style="stop-color:#4C4CBF"
   id="stop188" />
	</linearGradient>
	<path
   class="st24"
   d="M422.1,387.5l-14.2,79.7c0,0,18.3-3.2,26.9,0L422.1,387.5"
   id="path191" />
	<path
   class="st25"
   d="M422.1,387.5l12.7,79.7c0,0,54.1-6.8,95.5-0.6l-14.7-78.9L422.1,387.5"
   id="path193" />
	<polygon
   class="st26"
   points="475.9,428 462.8,428.3 460.9,417.8 473.7,417.7  "
   id="polygon195" />
	<polygon
   class="st26"
   points="496.6,427.4 483.5,427.7 481.6,417.2 494.4,417.1  "
   id="polygon197" />
	<polygon
   class="st26"
   points="516.2,427.5 503.1,427.8 501.2,417.3 514,417.2  "
   id="polygon199" />
	<polygon
   class="st26"
   points="518.8,441.7 505.7,442 503.8,431.4 516.6,431.4  "
   id="polygon201" />
	<polygon
   class="st26"
   points="478.7,441.5 465.7,441.8 463.8,431.3 476.6,431.2  "
   id="polygon203" />
	<polygon
   class="st26"
   points="458.5,442.2 445.4,442.5 443.5,432 456.3,431.9  "
   id="polygon205" />
	<polygon
   class="st26"
   points="461.7,456.8 448.6,457.1 446.8,446.6 459.6,446.5  "
   id="polygon207" />
	<polygon
   class="st26"
   points="481.8,456.5 468.7,456.8 466.8,446.3 479.6,446.3  "
   id="polygon209" />
	<polygon
   class="st26"
   points="502.5,456.5 489.4,456.8 487.5,446.3 500.3,446.2  "
   id="polygon211" />
	
		<linearGradient
   id="SVGID_12_"
   gradientUnits="userSpaceOnUse"
   x1="1250.4576"
   y1="1345.7523"
   x2="1265.1877"
   y2="1345.7523"
   gradientTransform="matrix(0.9997 -2.303631e-02 2.303631e-02 0.9997 -796.7332 -879.9561)">
		<stop
   offset="0"
   style="stop-color:#58CAEA"
   id="stop213" />
		<stop
   offset="1"
   style="stop-color:#4C4CBF"
   id="stop215" />
	</linearGradient>
	<polygon
   class="st27"
   points="499.2,441.5 486.1,441.8 484.3,431.3 497,431.2  "
   id="polygon218" />
	
		<linearGradient
   id="SVGID_13_"
   gradientUnits="userSpaceOnUse"
   x1="422.1067"
   y1="916.8631"
   x2="519.7768"
   y2="916.8631"
   gradientTransform="matrix(1 0 0 1 0 -518)">
		<stop
   offset="0"
   style="stop-color:#4C4FC0"
   id="stop220" />
		<stop
   offset="1"
   style="stop-color:#58CAEA"
   id="stop222" />
	</linearGradient>
	<polygon
   class="st28"
   points="422.1,387.5 425.7,410.2 519.8,409.9 515.6,387.8  "
   id="polygon225" />
	
		<linearGradient
   id="SVGID_14_"
   gradientUnits="userSpaceOnUse"
   x1="447.7774"
   y1="905.2809"
   x2="455.7168"
   y2="905.2809"
   gradientTransform="matrix(1 0 0 1 0 -518)">
		<stop
   offset="0"
   style="stop-color:#4D54C2"
   id="stop227" />
		<stop
   offset="1"
   style="stop-color:#4C4CBF"
   id="stop229" />
	</linearGradient>
	<polygon
   class="st29"
   points="447.8,382.4 454.9,382.3 455.7,392.3 448.7,392.3  "
   id="polygon232" />
	
		<linearGradient
   id="SVGID_15_"
   gradientUnits="userSpaceOnUse"
   x1="492.4092"
   y1="905.3899"
   x2="499.2714"
   y2="905.3899"
   gradientTransform="matrix(1 0 0 1 0 -518)">
		<stop
   offset="0"
   style="stop-color:#4D54C2"
   id="stop234" />
		<stop
   offset="1"
   style="stop-color:#4C4CBF"
   id="stop236" />
	</linearGradient>
	<polygon
   class="st30"
   points="492.4,382.9 498.6,382.7 499.3,392 493.2,392  "
   id="polygon239" />
	
		<linearGradient
   id="SVGID_16_"
   gradientUnits="userSpaceOnUse"
   x1="1193.5304"
   y1="1374.9963"
   x2="1193.5304"
   y2="1374.9963"
   gradientTransform="matrix(1 0 0 1 -785.59 -907.73)">
		<stop
   offset="0"
   style="stop-color:#58CAEA"
   id="stop241" />
		<stop
   offset="1"
   style="stop-color:#4C4CBF"
   id="stop243" />
	</linearGradient>
	<path
   class="st31"
   d="M407.9,467.3"
   id="path246" />
</g>
<polygon
   class="st0"
   points="212,25.5 375.5,162.8 238.3,326.3 74.7,189.1 "
   id="polygon14"
   style="fill:url(#SVGID_1_);stroke:url(#SVGID_2_);stroke-width:5;stroke-miterlimit:10"
   transform="matrix(0.56334179,0,0,0.59026502,30.471879,397.46157)" /><polygon
   class="st1"
   points="64.3,179.4 241.2,326.4 211.2,362.5 34.3,215.4 "
   id="polygon26"
   style="fill:url(#SVGID_3_);stroke:url(#SVGID_4_);stroke-miterlimit:10"
   transform="matrix(0.56334179,0,0,0.59026502,30.471879,397.46157)" /><path
   class="st2"
   d="m 184.77119,506.89671 c -6.53476,0 -84.895603,23.07936 -84.895603,23.07936 l 60.840913,53.8912 10.70349,-28.0376 c 0,0.11806 15.37924,-48.93296 13.3512,-48.93296 z"
   id="path28"
   style="fill:#ffffff;stroke-width:0.576647" /><rect
   x="32.837914"
   y="399.88165"
   class="st3"
   width="121.00582"
   height="126.78893"
   id="rect40"
   style="fill:url(#SVGID_5_);stroke:url(#SVGID_6_);stroke-width:0.576647;stroke-miterlimit:10" /><rect
   x="-182.37242"
   y="484.31711"
   class="st4"
   width="27.688087"
   height="42.476147"
   id="rect47"
   style="fill:none;stroke:url(#SVGID_7_);stroke-width:0.798278;stroke-miterlimit:10"
   transform="scale(-1,1)" /><rect
   y="526.0213"
   class="st5"
   width="123.82252"
   height="28.273695"
   id="rect54"
   style="fill:url(#SVGID_8_)"
   x="30.47187" /><polygon
   class="st2"
   points="190.1,215.4 122.4,213.4 183.3,111.2 214.9,155.5 214.9,215.4 "
   id="polygon56"
   style="fill:#ffffff"
   transform="matrix(0.56334179,0,0,0.59026502,30.471879,397.46157)" /><polygon
   class="st2"
   points="64.3,214.7 136.6,118.1 193.9,215.4 "
   id="polygon58"
   style="fill:#ffffff"
   transform="matrix(0.56334179,0,0,0.59026502,30.471879,397.46157)" /><path
   class="st2"
   d="m 69.849471,423.31518 c 5.351747,0 9.689478,4.54504 9.689478,10.15256 0,5.60752 -4.337731,10.15256 -9.689478,10.15256 -5.351747,0 -9.68948,-4.54504 -9.68948,-10.15256 0,-5.60752 4.337733,-10.15256 9.68948,-10.15256 v 0"
   id="path60"
   style="fill:#ffffff;stroke-width:0.576647" /><polygon
   class="cls-1"
   points="69.1,127 93.1,128 93.1,153.4 69.1,155.9 "
   id="polygon25"
   style="fill:#000080"
   transform="translate(617.80692,121.96547)" /><polygon
   class="cls-1"
   points="130.73,153.03 130.79,158 31,158 31,153 "
   id="polygon27"
   style="fill:#000080"
   transform="translate(617.80692,121.96547)" /><path
   class="cls-2"
   d="m 698.43692,237.06547 a 4.8,4.8 0 1 1 -4.8,4.8 4.8,4.8 0 0 1 4.8,-4.8"
   id="path29"
   style="fill:#000080" /><path
   class="cls-4"
   d="m 630.63692,132.16547 a 2.4,2.4 0 1 1 -2.4,2.4 2.4,2.4 0 0 1 2.4,-2.4"
   id="path33"
   style="fill:#fa5f5d" /><path
   class="cls-5"
   d="m 638.83692,132.16547 a 2.4,2.4 0 1 1 -2.4,2.4 2.4,2.4 0 0 1 2.4,-2.4"
   id="path35"
   style="fill:#fdbc4e" /><path
   class="cls-6"
   d="m 647.43692,132.16547 a 2.4,2.4 0 1 1 -2.4,2.4 2.4,2.4 0 0 1 2.4,-2.4"
   id="path37"
   style="fill:#37cd58" /><path
   class="cls-7"
   d="m 680.90692,149.71547 a 2.39,2.39 0 0 1 -2.5,2.25 h -29.5 c -1.52,0 -3,-1 -3,-2.25 v -4.49 c 0,-1.25 1.45,-2.26 3,-2.26 h 29.44 a 2.4,2.4 0 0 1 2.59,2.17 c 0,0 0,0.06 0,0.09 z"
   id="path39"
   style="fill:url(#linear-gradient)" /><path
   class="cls-9"
   d="m 678.90692,198.53547 a 2.44,2.44 0 0 1 -2.45,2.44 h -27.55 c -1.55,0 -3,-1.09 -3,-2.43 v -12.16 c 0,-1.33 1.48,-2.42 3,-2.42 h 27.38 a 2.43,2.43 0 0 1 2.59,2.28 c 0,0 0,0.09 0,0.14 z"
   id="path43"
   style="fill:url(#linear-gradient-3)" /><path
   class="cls-10"
   d="m 714.90692,198.53547 a 2.42,2.42 0 0 1 -2.41,2.44 h -27.59 c -1.56,0 -3,-1.09 -3,-2.43 v -12.16 c 0,-1.33 1.5,-2.42 3,-2.42 h 27.41 a 2.42,2.42 0 0 1 2.56,2.27 c 0,0.05 0,0.1 0,0.15 z"
   id="path45"
   style="fill:url(#linear-gradient-4)" /><path
   class="cls-11"
   d="m 751.90692,198.53547 a 2.59,2.59 0 0 1 -2.74,2.43 h -27.38 a 2.7,2.7 0 0 1 -2.88,-2.43 v -12.15 a 2.7,2.7 0 0 1 2.88,-2.42 h 27.37 a 2.59,2.59 0 0 1 2.75,2.42 v 0 z"
   id="path47"
   style="fill:url(#linear-gradient-5)" /><path
   class="cls-12"
   d="m 714.90692,205.46547 a 1.55,1.55 0 0 1 -1.06,0.9 c -0.06,0 -0.12,0 -0.18,-0.4 h -30.24 c -0.62,0.4 -1.54,0.05 -1.52,-0.5 v -0.39 c 0,-0.55 0.9,-1 1.52,-1.11 h 30.24 a 1.16,1.16 0 0 1 0.93,0.94 c 0,0.06 0,0.11 0.31,0.17 z"
   id="path49"
   style="fill:#e9edfb" /><path
   class="cls-12"
   d="m 714.90692,209.40547 a 1.6,1.6 0 0 1 -1.1,1 c 0,0 -0.09,0 -0.14,-0.43 h -30.24 c -0.62,0.44 -1.54,0 -1.52,-0.56 v -0.45 c 0,-0.54 0.9,-0.85 1.52,-1 h 30.24 a 2,2 0 0 1 1.24,1 z"
   id="path51"
   style="fill:#e9edfb" /><path
   class="cls-12"
   d="m 714.90692,213.35547 a 1.67,1.67 0 0 1 -1.23,1.08 2.29,2.29 0 0 1 0,-0.47 h -30.24 a 1,1 0 0 1 -1.52,-0.61 v -0.39 c 0,-0.54 0.9,-0.76 1.52,-1 h 30.24 a 2,2 0 0 1 1.24,1 z"
   id="path53"
   style="fill:#e9edfb" /><path
   class="cls-12"
   d="m 714.90692,217.29547 a 5.07,5.07 0 0 1 -1.24,1.67 h -30.24 c -0.62,-0.5 -1.54,-1.12 -1.52,-1.67 v -0.39 c 0,-0.55 0.9,-1.13 1.52,-0.94 h 30.24 a 0.77,0.77 0 0 1 0.94,0.87 c 0,0 0,0 0.3,0.07 z"
   id="path55"
   style="fill:#e9edfb" /><path
   class="cls-12"
   d="m 698.12692,221.23547 c 0,0.49 -0.33,0.73 -0.9,0.73 h -13.92 c -0.56,0 -1.39,-0.24 -1.39,-0.73 v -0.36 c 0,-0.49 0.83,-0.9 1.39,-0.9 h 13.93 a 0.9,0.9 0 0 1 0.9,0.9 z"
   id="path57"
   style="fill:#e9edfb" /><path
   class="cls-12"
   d="m 751.90692,205.46547 c -0.57,0.55 -0.47,0.9 -1.09,0.5 h -30.25 c -0.51,0.44 -1,0.07 -1,-0.44 0,0 0,0 0.34,-0.06 v -0.39 c -0.31,-0.53 0.13,-1 0.66,-1.11 h 30.25 c 0.62,0.16 0.52,0.56 1.09,1.11 z"
   id="path59"
   style="fill:#e9edfb" /><path
   class="cls-12"
   d="m 751.90692,209.40547 c -0.57,0.55 -0.47,1 -1.09,0.56 h -30.25 c -0.55,0.44 -1,0 -0.66,-0.56 v -0.44 c -0.34,-0.54 0.08,-0.85 0.66,-1 h 30.25 c 0.62,0.2 0.52,0.51 1.09,1 z"
   id="path61"
   style="fill:#e9edfb" /><path
   class="cls-12"
   d="m 751.90692,213.35547 c -0.57,0.54 -0.47,1.08 -1.09,0.61 h -30.25 c -0.57,0.43 -1,0 -0.66,-0.61 v -0.39 c -0.34,-0.54 0.08,-0.76 0.66,-1 h 30.25 c 0.62,0.23 0.52,0.45 1.09,1 z"
   id="path63"
   style="fill:#e9edfb" /><path
   class="cls-12"
   d="m 735.27692,221.23547 c 0,0.49 0,0.73 -0.53,0.73 h -13.94 c -0.56,0 -0.9,-0.24 -0.9,-0.73 v -0.36 a 0.9,0.9 0 0 1 0.9,-0.9 h 13.92 c 0.56,0 0.53,0.44 0.53,0.9 z"
   id="path67"
   style="fill:#e9edfb" /><path
   class="cls-12"
   d="m 677.90692,205.46547 c 0.39,0.55 0.17,0.9 -0.45,0.5 h -30.25 a 0.81,0.81 0 0 1 -1.3,-0.5 v -0.39 a 1.71,1.71 0 0 1 1.3,-1.11 h 30.25 c 0.62,0.16 0.84,0.56 0.45,1.11 z"
   id="path69"
   style="fill:#e9edfb" /><path
   class="cls-12"
   d="m 677.90692,209.40547 c 0.39,0.55 0.17,1 -0.45,0.56 h -30.25 c -0.6,0.47 -1.11,0 -1.3,-0.56 v -0.44 c 0.13,-0.54 0.68,-0.85 1.3,-1 h 30.25 c 0.62,0.2 0.84,0.51 0.45,1 z"
   id="path71"
   style="fill:#e9edfb" /><path
   class="cls-12"
   d="m 677.90692,213.35547 c 0.39,0.54 0.17,1.08 -0.45,0.61 h -30.25 c -0.61,0.46 -1.11,0 -1.3,-0.61 v -0.39 c 0.13,-0.54 0.68,-0.76 1.3,-1 h 30.25 c 0.62,0.23 0.84,0.45 0.45,1 z"
   id="path73"
   style="fill:#e9edfb" /><path
   class="cls-12"
   d="m 668.90692,215.96547 h 8.55 c 0.62,-0.19 0.84,0.39 0.45,0.94 v 0.39 c 0.39,0.55 0.17,1.17 -0.45,1.67 h -30.25 a 3.71,3.71 0 0 1 -1.3,-1.67 v -0.39 a 1.12,1.12 0 0 1 1.3,-0.94 h 21.7"
   id="path75"
   style="fill:#e9edfb" /><path
   class="cls-12"
   d="m 662.90692,221.23547 c 0,0.49 -0.28,0.73 -0.89,0.73 h -15 c -0.6,0 -1.14,-0.24 -1.14,-0.73 v -0.36 a 1.09,1.09 0 0 1 1.14,-0.9 h 15 a 0.86,0.86 0 0 1 0.89,0.84 c 0,0 0,0 0,0.07 z"
   id="path77"
   style="fill:#e9edfb" /><g
   id="Layer_2"
   transform="translate(348.67692,-29.26453)"><g
     id="Computer"><title
       id="title39">Computer</title><path
       class="st1"
       d="m 288.2,283.1 h 118.2 c 0,0 4.4,-0.2 4.4,-5.4 V 267.5 H 283.5 v 12.3 c 0.7,2.1 2.5,3.4 4.7,3.3"
       id="path41" /><path
       class="st1"
       d="m 283.5,190.8 -0.1,80.7 127.3,-1.2 v -81.9 c 0,0 0.8,-4.7 -4.2,-4.7 H 288.3 c 0,0.1 -5.3,0.1 -4.8,7.1"
       id="path43-7" /><polygon
       class="st1"
       points="355.7,302.8 337.1,304.8 337.1,282.3 355.7,283.1 "
       id="polygon45" /><polygon
       class="st1"
       points="307.5,306.4 307.5,302.5 384.9,302.5 385,306.4 "
       id="polygon47" /><path
       class="st3"
       d="m 346,273.1 c 2.1,0 3.7,1.6 3.7,3.7 0,2.1 -1.6,3.7 -3.7,3.7 -2.1,0 -3.7,-1.6 -3.7,-3.7 0,-2.1 1.7,-3.7 3.7,-3.7 v 0"
       id="path49-5" /><rect
       x="287.39999"
       y="187.7"
       class="st0"
       width="119.5"
       height="78.400002"
       id="rect51" /><path
       class="st4"
       d="m 293.4,191.7 c 1,0 1.9,0.9 1.9,1.9 0,1 -0.9,1.9 -1.9,1.9 -1,0 -1.9,-0.9 -1.9,-1.9 0,-1 0.9,-1.9 1.9,-1.9 v 0"
       id="path53-9" /><path
       class="st5"
       d="m 299.8,191.7 c 1,0 1.9,0.9 1.9,1.9 0,1 -0.9,1.9 -1.9,1.9 -1,0 -1.9,-0.9 -1.9,-1.9 0,-1 0.8,-1.9 1.9,-1.9 v 0"
       id="path55-2" /><path
       class="st6"
       d="m 306.4,191.7 c 1,0 1.9,0.9 1.9,1.9 0,1 -0.9,1.9 -1.9,1.9 -1,0 -1.9,-0.9 -1.9,-1.9 0.1,-1 0.9,-1.9 1.9,-1.9 v 0"
       id="path57-2"
       style="fill:url(#linearGradient910)" /><linearGradient
       id="linearGradient1638"
       gradientUnits="userSpaceOnUse"
       x1="1315.1656"
       y1="1171.5818"
       x2="1342.3239"
       y2="1171.5818"
       gradientTransform="translate(-1009.9,-968)"><stop
         offset="0"
         style="stop-color:#F71D69"
         id="stop1634" /><stop
         offset="1"
         style="stop-color:#F8C648"
         id="stop1636" /></linearGradient><path
       class="st7"
       d="m 332.4,205.4 c -0.1,1 -0.9,1.8 -1.9,1.7 h -22.9 c -1.2,0 -2.3,-0.8 -2.3,-1.7 v -3.5 c 0,-0.9 1.1,-1.8 2.3,-1.8 h 22.8 c 1,-0.1 1.9,0.7 2,1.7 v 0.1 z"
       id="path64"
       style="fill:url(#SVGID_1_-2)" /><linearGradient
       id="linearGradient1645"
       gradientUnits="userSpaceOnUse"
       x1="1315.1656"
       y1="1187.8767"
       x2="1397.4163"
       y2="1187.8767"
       gradientTransform="translate(-1009.9,-968)"><stop
         offset="0"
         style="stop-color:#93FD94"
         id="stop1641" /><stop
         offset="1"
         style="stop-color:#21C4C0"
         id="stop1643" /></linearGradient><path
       class="st8"
       d="m 387.5,228.5 c -0.1,1.1 -1,1.9 -2.1,1.9 v 0 h -77.8 c -1.2,0 -2.3,-0.9 -2.3,-1.9 v -17.2 c 0,-1 1.2,-1.9 2.3,-1.9 h 77.8 c 1.1,-0.1 2,0.8 2.1,1.9 v 0 0 z"
       id="path71-8"
       style="fill:url(#SVGID_2_-6)" /><linearGradient
       id="linearGradient1652"
       gradientUnits="userSpaceOnUse"
       x1="1315.1656"
       y1="1206.4968"
       x2="1340.772"
       y2="1206.4968"
       gradientTransform="translate(-1009.9,-968)"><stop
         offset="0"
         style="stop-color:#93FD94"
         id="stop1648" /><stop
         offset="1"
         style="stop-color:#21C4C0"
         id="stop1650" /></linearGradient><path
       class="st9"
       d="m 330.9,243.2 c 0,1 -0.9,1.9 -1.9,1.9 v 0 h -21.4 c -1.2,0 -2.3,-0.9 -2.3,-1.9 v -9.5 c 0,-1 1.2,-1.9 2.3,-1.9 h 21.3 c 1,-0.1 1.9,0.7 2,1.8 v 0 0.1 z"
       id="path78"
       style="fill:url(#SVGID_3_-1);stroke:url(#linearGradient912)" /><linearGradient
       id="linearGradient1659"
       gradientUnits="userSpaceOnUse"
       x1="1343.0997"
       y1="1206.4968"
       x2="1368.7061"
       y2="1206.4968"
       gradientTransform="translate(-1009.9,-968)"><stop
         offset="0"
         style="stop-color:#93FD94"
         id="stop1655" /><stop
         offset="1"
         style="stop-color:#21C4C0"
         id="stop1657" /></linearGradient><path
       class="st10"
       d="m 358.8,243.2 c 0,1 -0.9,1.9 -1.9,1.9 v 0 h -21.4 c -1.2,0 -2.3,-0.9 -2.3,-1.9 v -9.5 c 0,-1 1.2,-1.9 2.3,-1.9 h 21.3 c 1,-0.1 1.9,0.7 2,1.8 v 0.1 z"
       id="path85"
       style="fill:url(#SVGID_4_-8)" /><linearGradient
       id="linearGradient1666"
       gradientUnits="userSpaceOnUse"
       x1="1371.8099"
       y1="1206.4993"
       x2="1397.4163"
       y2="1206.4993"
       gradientTransform="translate(-1009.9,-968)"><stop
         offset="0"
         style="stop-color:#93FD94"
         id="stop1662" /><stop
         offset="1"
         style="stop-color:#21C4C0"
         id="stop1664" /></linearGradient><path
       class="st11"
       d="m 387.5,243.2 c -0.1,1.1 -1,1.9 -2.1,1.9 h -21.3 c -1.2,0.1 -2.1,-0.8 -2.3,-1.9 v -9.5 c 0.1,-1.2 1.1,-1.9 2.3,-1.9 h 21.3 c 1.1,-0.1 2.1,0.8 2.2,1.9 v 0 0 z"
       id="path92"
       style="fill:url(#SVGID_5_-7);stroke:url(#linearGradient914)" /><path
       class="st12"
       d="m 358.8,248.6 c -0.2,0.4 -0.5,0.6 -0.9,0.7 -0.1,0 -0.1,0 -0.2,-0.3 h -23.4 c -0.5,0.3 -1.2,0 -1.2,-0.4 v -0.3 c 0,-0.4 0.7,-0.8 1.2,-0.9 h 23.4 c 0.4,0.1 0.6,0.4 0.7,0.7 0,0.1 0,0.1 0.2,0.2 z"
       id="path94" /><path
       class="st12"
       d="m 358.8,251.6 c -0.2,0.4 -0.5,0.7 -0.9,0.8 0,0 -0.1,0 -0.1,-0.3 h -23.5 c -0.5,0.3 -1.2,0 -1.2,-0.5 v -0.3 c 0,-0.4 0.7,-0.7 1.2,-0.8 h 23.4 c 0.4,0.1 0.8,0.4 0.9,0.8 z"
       id="path96" /><path
       class="st12"
       d="m 358.8,254.7 c -0.2,0.5 -0.5,0.8 -0.9,0.9 0,-0.2 0,-0.2 0,-0.4 h -23.5 c -0.4,0.2 -0.9,0.2 -1.1,-0.2 -0.1,-0.1 -0.1,-0.2 -0.1,-0.2 v -0.3 c 0,-0.4 0.7,-0.6 1.2,-0.8 h 23.4 c 0.4,0.1 0.8,0.4 0.9,0.8 z"
       id="path98" /><path
       class="st12"
       d="m 358.8,257.7 c -0.2,0.5 -0.5,0.9 -0.9,1.3 h -23.5 c -0.5,-0.4 -1.2,-0.9 -1.2,-1.3 v -0.3 c 0,-0.4 0.7,-0.9 1.2,-0.7 h 23.4 c 0.3,-0.1 0.6,0.2 0.7,0.5 0,0.1 0,0.2 0,0.2 0,0 0,0 0.2,0.1 z"
       id="path100" /><path
       class="st12"
       d="m 345.8,260.8 c 0,0.4 -0.2,0.5 -0.7,0.5 h -10.8 c -0.5,0 -1.1,-0.2 -1.1,-0.5 v -0.3 c 0,-0.4 0.6,-0.7 1.1,-0.7 h 10.8 c 0.4,0 0.7,0.3 0.7,0.7 v 0 z"
       id="path102" /><path
       class="st12"
       d="m 387.5,248.6 c -0.5,0.4 -0.4,0.7 -0.9,0.4 h -23.4 c -0.4,0.3 -0.8,0.1 -0.8,-0.3 0,0 0,0 0.2,-0.1 v -0.3 c -0.2,-0.4 0.1,-0.8 0.5,-0.9 h 23.4 c 0.5,0.2 0.4,0.5 0.9,0.9 v 0.3 z"
       id="path104" /><path
       class="st12"
       d="m 387.5,251.6 c -0.5,0.4 -0.4,0.8 -0.9,0.5 h -23.4 c -0.5,0.3 -0.8,0 -0.5,-0.5 v -0.3 c -0.2,-0.4 0.1,-0.7 0.5,-0.8 h 23.4 c 0.5,0.2 0.4,0.4 0.9,0.8 z"
       id="path106" /><path
       class="st12"
       d="m 387.5,254.7 c -0.5,0.4 -0.4,0.9 -0.9,0.5 h -23.4 c -0.5,0.3 -0.8,0 -0.5,-0.5 v -0.3 c -0.2,-0.4 0.1,-0.6 0.5,-0.8 h 23.4 c 0.5,0.2 0.4,0.4 0.9,0.8 z"
       id="path108" /><path
       class="st12"
       d="m 387.5,257.7 c -0.5,0.4 -0.4,0.9 -0.9,1.3 h -23.4 c -0.5,-0.5 -0.8,-0.9 -0.5,-1.3 v -0.3 c -0.2,-0.2 -0.2,-0.5 0,-0.6 0.2,-0.1 0.3,-0.2 0.5,-0.1 h 23.5 c 0.5,-0.2 0.4,0.3 0.9,0.7 v 0.3 z"
       id="path110" /><path
       class="st12"
       d="m 374.6,260.8 c 0,0.4 0,0.5 -0.4,0.5 h -10.9 c -0.5,0 -0.7,-0.2 -0.7,-0.5 v -0.3 c 0,-0.4 0.3,-0.7 0.7,-0.7 v 0 h 10.8 c 0.5,0 0.4,0.3 0.4,0.7 z"
       id="path112" /><path
       class="st12"
       d="m 330.1,248.6 c 0.3,0.4 0.2,0.7 -0.3,0.4 h -23.5 c -0.3,0.2 -0.7,0.2 -0.9,-0.1 -0.1,-0.1 -0.1,-0.2 -0.2,-0.3 v -0.3 c 0.2,-0.5 0.5,-0.8 1,-0.9 h 23.4 c 0.5,0.2 0.6,0.5 0.3,0.9 z"
       id="path114" /><path
       class="st12"
       d="m 330.1,251.6 c 0.3,0.4 0.2,0.8 -0.3,0.5 h -23.5 c -0.5,0.4 -0.9,0 -1,-0.5 v -0.3 c 0.1,-0.4 0.5,-0.7 1,-0.8 h 23.4 c 0.5,0.2 0.6,0.4 0.3,0.8 z"
       id="path116" /><path
       class="st12"
       d="m 330.1,254.7 c 0.3,0.4 0.2,0.9 -0.3,0.5 h -23.5 c -0.5,0.4 -0.9,0 -1,-0.5 v -0.3 c 0.1,-0.4 0.5,-0.6 1,-0.8 h 23.4 c 0.5,0.2 0.6,0.4 0.3,0.8 z"
       id="path118" /><path
       class="st12"
       d="m 323.1,256.7 h 6.7 c 0.5,-0.2 0.6,0.3 0.3,0.7 v 0.3 c 0.3,0.4 0.2,0.9 -0.3,1.3 h -23.5 c -0.5,-0.3 -0.8,-0.8 -1,-1.3 v -0.3 c 0.1,-0.5 0.5,-0.8 1,-0.7 v 0 h 16.8"
       id="path120" /><path
       class="st12"
       d="m 318.5,260.8 c 0,0.4 -0.2,0.5 -0.7,0.5 h -11.6 c -0.5,0 -0.9,-0.2 -0.9,-0.5 v -0.3 c 0.1,-0.4 0.5,-0.7 0.9,-0.7 h 11.6 c 0.4,0 0.7,0.3 0.7,0.6 v 0 c 0,0 0,0 0,0.1 z"
       id="path122" /></g><g
     id="g250"
     transform="matrix(0.41439984,0,0,0.38807394,224.86706,183.54961)"><title
       id="title185">phone</title><linearGradient
       id="linearGradient1690"
       gradientUnits="userSpaceOnUse"
       x1="955.23352"
       y1="-813.5379"
       x2="1071.9446"
       y2="-722.73071"
       gradientTransform="matrix(1,0,0,-1,-867.60507,-509.67229)"><stop
         offset="6.775068e-04"
         style="stop-color:#93DF93"
         id="stop1686" /><stop
         offset="0.9993"
         style="stop-color:#21C2C1"
         id="stop1688" /></linearGradient><path
       class="st18"
       d="m 206.29493,292.42771 c 0,2.1 -1.6,3.7 -3.7,3.7 v 0 h -53.8 c -2,0 -3.7,-1.6 -3.7,-3.7 v -114.1 c 0,-2 1.6,-3.7 3.7,-3.7 h 53.8 c 2,0 3.7,1.6 3.7,3.7 z"
       id="path192"
       style="fill:url(#SVGID_14_-9)" /><linearGradient
       id="linearGradient1697"
       gradientUnits="userSpaceOnUse"
       x1="1011.5797"
       y1="-744.61682"
       x2="1075.818"
       y2="-744.61682"
       gradientTransform="matrix(1,0,0,-1,-868,-507.5)"><stop
         offset="0"
         style="stop-color:#7A5BF5"
         id="stop1693" /><stop
         offset="1"
         style="stop-color:#805FF5"
         id="stop1695" /></linearGradient><path
       class="st19"
       d="m 206.3,294.2 c 0,2.1 -1.6,3.7 -3.7,3.7 v 0 h -53.9 c -2,0 -3.7,-1.6 -3.7,-3.7 V 180 c 0,-2.1 1.6,-3.7 3.7,-3.7 h 53.9 c 2,0 3.7,1.6 3.7,3.7 z"
       id="path199"
       style="stroke:url(#SVGID_15_-2)" /><rect
       x="150.89999"
       y="193"
       class="st3"
       width="49.5"
       height="90"
       id="rect201" /><polygon
       class="st3"
       points="151,192.9 184.3,192.8 164.5,283 151,283.1 "
       id="polygon203-9" /><linearGradient
       id="linearGradient1706"
       gradientUnits="userSpaceOnUse"
       x1="149.93269"
       y1="-426.00562"
       x2="201.4375"
       y2="-426.00562"
       gradientTransform="matrix(1,0,0,-1,0,-188)"><stop
         offset="0"
         style="stop-color:#7A5BF5"
         id="stop1702" /><stop
         offset="1"
         style="stop-color:#805FF5"
         id="stop1704" /></linearGradient><rect
       x="150.89999"
       y="193"
       class="st20"
       width="49.5"
       height="90"
       id="rect210"
       style="stroke:url(#SVGID_16_-0)" /><linearGradient
       id="linearGradient1713"
       gradientUnits="userSpaceOnUse"
       x1="170.5979"
       y1="-374.68201"
       x2="179.8698"
       y2="-374.68201"
       gradientTransform="matrix(1,0,0,-1,0,-188)"><stop
         offset="0"
         style="stop-color:#7A5BF5"
         id="stop1709" /><stop
         offset="1"
         style="stop-color:#805FF5"
         id="stop1711" /></linearGradient><linearGradient
       id="linearGradient1719"
       gradientUnits="userSpaceOnUse"
       x1="170.0979"
       y1="-374.68201"
       x2="180.3698"
       y2="-374.68201"
       gradientTransform="matrix(1,0,0,-1,0,-188)"><stop
         offset="0"
         style="stop-color:#7A5BF5"
         id="stop1715" /><stop
         offset="1"
         style="stop-color:#805FF5"
         id="stop1717" /></linearGradient><path
       class="st21"
       d="m 171.6,185.7 h 7.3 c 0.5,0 1,0.4 1,1 v 0 c 0,0.5 -0.4,1 -1,1 h -7.3 c -0.5,0 -1,-0.4 -1,-1 v 0 c 0,-0.6 0.4,-1 1,-1 z"
       id="path222"
       style="fill:url(#SVGID_17_);stroke:url(#SVGID_18_)" /><linearGradient
       id="linearGradient1726"
       gradientUnits="userSpaceOnUse"
       x1="174.3996"
       y1="-370.1691"
       x2="176.13091"
       y2="-370.1691"
       gradientTransform="matrix(1,0,0,-1,0,-188)"><stop
         offset="0"
         style="stop-color:#7A5BF5"
         id="stop1722" /><stop
         offset="1"
         style="stop-color:#805FF5"
         id="stop1724" /></linearGradient><circle
       class="st22"
       cx="175.3"
       cy="182.2"
       r="0.89999998"
       id="circle229"
       style="fill:url(#SVGID_19_)" /><linearGradient
       id="linearGradient1733"
       gradientUnits="userSpaceOnUse"
       x1="1040.4578"
       y1="-797.97803"
       x2="1046.2178"
       y2="-797.97803"
       gradientTransform="matrix(1,0,0,-1,-868,-507.5)"><stop
         offset="0"
         style="stop-color:#7A5BF5"
         id="stop1729" /><stop
         offset="1"
         style="stop-color:#805FF5"
         id="stop1731" /></linearGradient><linearGradient
       id="linearGradient1739"
       gradientUnits="userSpaceOnUse"
       x1="1039.9578"
       y1="-797.97803"
       x2="1046.7197"
       y2="-797.97803"
       gradientTransform="matrix(1,0,0,-1,-868,-507.5)"><stop
         offset="0"
         style="stop-color:#7A5BF5"
         id="stop1735" /><stop
         offset="1"
         style="stop-color:#805FF5"
         id="stop1737" /></linearGradient><path
       class="st23"
       d="m 175.3,287.6 c 1.6,0 2.9,1.3 2.9,2.9 0,1.6 -1.3,2.9 -2.9,2.9 -1.6,0 -2.9,-1.3 -2.9,-2.9 0.1,-1.6 1.3,-2.9 2.9,-2.9 v 0"
       id="path241"
       style="fill:url(#SVGID_20_);stroke:url(#SVGID_21_)" /><linearGradient
       id="linearGradient1746"
       gradientUnits="userSpaceOnUse"
       x1="171.4577"
       y1="-478.478"
       x2="179.2216"
       y2="-478.478"
       gradientTransform="matrix(1,0,0,-1,0,-188)"><stop
         offset="0"
         style="stop-color:#7A5BF5"
         id="stop1742" /><stop
         offset="1"
         style="stop-color:#805FF5"
         id="stop1744" /></linearGradient><circle
       class="st24"
       cx="175.3"
       cy="290.5"
       r="2.9000001"
       id="circle248"
       style="fill:url(#linearGradient916);stroke:url(#SVGID_22_)" /></g></g></svg>
