<?xml version="1.0" encoding="UTF-8" standalone="no"?>
<svg
   xmlns:dc="http://purl.org/dc/elements/1.1/"
   xmlns:cc="http://creativecommons.org/ns#"
   xmlns:rdf="http://www.w3.org/1999/02/22-rdf-syntax-ns#"
   xmlns:svg="http://www.w3.org/2000/svg"
   xmlns="http://www.w3.org/2000/svg"
   xmlns:sodipodi="http://sodipodi.sourceforge.net/DTD/sodipodi-0.dtd"
   xmlns:inkscape="http://www.inkscape.org/namespaces/inkscape"
   width="297mm"
   height="210mm"
   viewBox="0 0 297 210"
   version="1.1"
   id="svg284"
   inkscape:version="1.0.1 (3bc2e813f5, 2020-09-07)"
   sodipodi:docname="testi1.svg">
  <defs
     id="defs278" />
  <sodipodi:namedview
     id="base"
     pagecolor="#ffffff"
     bordercolor="#666666"
     borderopacity="1.0"
     inkscape:pageopacity="0.0"
     inkscape:pageshadow="2"
     inkscape:zoom="0.35"
     inkscape:cx="400"
     inkscape:cy="560"
     inkscape:document-units="mm"
     inkscape:current-layer="layer1"
     inkscape:document-rotation="0"
     showgrid="false"
     inkscape:window-width="1545"
     inkscape:window-height="971"
     inkscape:window-x="95"
     inkscape:window-y="122"
     inkscape:window-maximized="0" />
  <metadata
     id="metadata281">
    <rdf:RDF>
      <cc:Work
         rdf:about="">
        <dc:format>image/svg+xml</dc:format>
        <dc:type
           rdf:resource="http://purl.org/dc/dcmitype/StillImage" />
        <dc:title></dc:title>
      </cc:Work>
    </rdf:RDF>
  </metadata>
  <g
     inkscape:label="Layer 1"
     inkscape:groupmode="layer"
     id="layer1">
    <path
       d="m 68.307538,51.692049 -1.73372,-3.34771 c 0,0 -3.20727,-2.748812 -1.386102,-4.967546 1.821197,-2.221149 9.539873,-2.74881 11.231264,5.355344 0,0 2.729859,0.07109 3.207269,2.218684 0.476892,2.150012 -1.908617,3.558812 -2.645664,5.144513 -0.737062,1.585482 -2.385536,2.149878 -2.385536,2.149878 l -3.077465,0.387882 z"
       fill="#0c1b3c"
       id="path2"
       style="stroke-width:0.495777" />
    <path
       d="m 86.994599,96.757997 c 0,0 -1.821183,2.360806 -2.255704,3.629893 -0.435081,1.26867 -0.82451,1.65654 -0.477437,1.90187 0.347604,0.24802 1.213925,-1.02064 1.821168,-1.65653 0.607243,-0.635448 0.694691,1.69094 0.694691,2.53776 0,0.8468 -0.501617,2.36124 0.06325,2.39564 0.564901,0.0343 2.017552,-1.93895 2.536786,-2.74912 0.519262,-0.80972 0.287127,-6.059513 0.287127,-6.059513 z"
       fill="#e9928b"
       id="path4"
       style="stroke-width:0.495777" />
    <path
       d="m 82.289573,143.99452 -1.301402,0.79273 c 0,0 -0.975789,3.06552 -0.519795,4.25329 H 95.88215 c 0,0 -1.495008,-1.74502 -4.55379,-2.52302 -3.056582,-0.78068 -3.968526,-1.04298 -4.421224,-1.73027 -0.455978,-0.68727 -4.617563,-0.79273 -4.617563,-0.79273 z"
       fill="#ffab40"
       id="path6"
       style="stroke-width:0.495777" />
    <path
       d="m 57.77098,143.57224 1.105032,1.21458 c 0,0 1.36519,2.69504 0.779405,4.25327 H 46.778428 c 0,0 0.196468,-1.74501 2.340417,-2.52301 2.146795,-0.78024 4.031261,-1.73026 4.031261,-1.73026 z"
       fill="#ffab40"
       id="path8"
       style="stroke-width:0.495777" />
    <path
       d="M 95.88215,149.04323 H 80.468376 v 1.24183 H 95.88215 Z"
       fill="#ffffff"
       id="path10"
       style="stroke-width:0.495777" />
    <path
       d="M 59.65818,149.04323 H 46.781177 v 1.24183 H 59.65818 Z"
       fill="#ffffff"
       id="path12"
       style="stroke-width:0.495777" />
    <path
       d="m 86.907136,144.78725 h -5.918965 l -0.410888,-2.24594 -0.431785,-2.35363 6.30566,-0.7387 0.265668,3.09233 z"
       fill="#e9928b"
       id="path14"
       style="stroke-width:0.495777" />
    <path
       d="m 59.65818,140.29535 -0.389443,2.24551 -0.392725,2.24549 h -5.722625 l 0.359191,-2.24549 0.356427,-2.24551 z"
       fill="#e9928b"
       id="path16"
       style="stroke-width:0.495777" />
    <path
       d="m 53.869005,140.29535 h 5.789175 l -0.389443,2.24551 h -5.756159 z"
       fill="#de6667"
       id="path18"
       style="stroke-width:0.495777" />
    <path
       d="m 86.716826,142.54131 h -6.139543 l -0.431785,-2.35363 6.30566,-0.7387 z"
       fill="#de6667"
       id="path20"
       style="stroke-width:0.495777" />
    <path
       d="m 88.338343,141.40492 h -9.234609 c 0,0 -7.154378,-20.71943 -7.933236,-23.68171 -0.779405,-2.95738 -3.470189,-9.4785 -3.470189,-9.4785 l -6.936564,33.15752 h -8.144977 c 0,0 -0.341027,-15.96253 0,-21.24941 0.2717,-4.22155 1.655051,-17.68074 3.062612,-24.383749 0.355866,-1.690928 0.712293,-2.9502 1.050571,-3.524431 1.691391,-2.854143 22.371783,3.276438 22.371783,3.276438 0,0 0.141979,0.650624 0.386666,1.779423 0.790961,3.637499 2.663294,12.225369 4.384925,19.892279 2.249672,10.04557 4.463018,24.21214 4.463018,24.21214 z"
       fill="#5f6386"
       id="path22"
       style="stroke-width:0.495777" />
    <path
       d="m 67.700309,108.24695 -3.101687,-8.914556 c 0,0 -3.185824,4.933416 -2.276615,8.914556 0.91196,3.98069 -2.787615,5.44597 -0.163396,9.68941 2.624249,4.24614 -1.153434,7.48591 1.392147,10.13897 z"
       fill="#4a4e73"
       id="path24"
       style="stroke-width:0.495777" />
    <path
       d="m 79.489853,97.305838 c -2.442732,0.426784 -5.447601,0.426784 -9.089952,-0.395454 -8.262146,-1.862542 -12.628921,-1.587722 -14.721818,-1.138612 0.356428,-1.690954 0.712855,-2.950238 1.051133,-3.524444 1.690831,-2.854131 22.371208,3.276412 22.371208,3.276412 0,0 0.145303,0.652888 0.389429,1.782098 z"
       fill="#4a4e73"
       id="path26"
       style="stroke-width:0.495777" />
    <path
       d="m 47.430231,56.094439 c 0,0 -0.519235,-2.19166 0.649599,-3.32307 1.168848,-1.131474 3.955888,0.628289 3.955888,0.628289 0,0 1.805783,1.578067 0.875662,3.060319 -0.930122,1.484938 -5.481149,-0.365538 -5.481149,-0.365538 z"
       fill="#e9928b"
       id="path28"
       style="stroke-width:0.495777" />
    <path
       d="m 83.032666,74.316351 c -1.132537,5.335569 -2.990045,11.274898 -2.757349,13.915883 0.431771,4.933401 0.694691,6.766454 1.041763,7.682073 0.344323,0.917858 -5.115367,1.690942 -11.013436,0 -2.842062,-0.817299 -6.453641,-1.320475 -9.42548,-1.624811 -3.197957,-0.323975 -5.662119,-0.41737 -5.662119,-0.41737 0,0 1.649021,-7.119931 2.168269,-10.855286 0.522515,-3.73536 -0.03016,-8.032876 -0.03016,-8.032876 0,0 -0.0028,0.0026 -0.0084,0.0064 -0.253594,0.159601 -6.704444,4.167468 -10.023384,1.570745 -0.4802,-0.375379 -0.842673,-0.898232 -1.111077,-1.529205 -2.177624,-5.131811 1.983989,-17.52612 1.983989,-17.52612 l 4.943739,0.564396 c 0,0 -0.694677,9.655452 -0.260157,9.726509 0.432332,0.07109 5.115929,-3.381882 7.371631,-4.722043 1.262355,-0.751176 3.388801,-1.192682 5.629132,-1.38931 1.757927,-0.149641 3.585141,-0.147108 5.121959,-0.02195 0,0 2.279924,0.04155 5.022407,0.520161 2.186417,0.378036 4.662697,1.033146 6.510822,2.157477 1.926795,1.177939 1.485653,5.348097 0.498337,9.974514 z"
       fill="#7dc4be"
       id="path30"
       style="stroke-width:0.495777" />
    <g
       opacity="0.65"
       id="g34"
       transform="matrix(0.55004001,0,0,0.44686699,-98.91891,9.9683911)">
      <path
         opacity="0.65"
         d="m 327.673,192.329 c 0.626,2.054 -9.301,3.784 -20.023,0 -5.167,-1.829 -11.733,-2.955 -17.136,-3.636 1.982,-2.472 5.37,-4.976 12.408,-7.058 17.262,-5.113 0.785,-13.901 10.69,-19.657 9.905,-5.75 10.745,-23.353 10.745,-23.353 l 6.435,5.366 c -2.059,11.94 -5.436,25.232 -5.013,31.141 0.79,11.045 1.263,15.143 1.894,17.197 z"
         fill="#379690"
         id="path32" />
    </g>
    <path
       d="m 76.0169,62.1839 c -2.403671,3.654479 -9.213726,6.850027 -9.213726,6.850027 -1.174317,-2.761188 -1.044512,-6.045227 -0.930106,-7.350969 1.757928,-0.14964 3.584608,-0.146936 5.121958,-0.02197 0,0.0017 2.279926,0.04424 5.021874,0.522846 z"
       fill="#ffffff"
       id="path36"
       style="stroke-width:0.495777" />
    <path
       d="m 79.233538,64.059407 c 1.186983,-1.072479 3.641818,-0.139845 6.676941,3.453385 3.035107,3.592812 5.635148,11.557322 6.157691,14.306007 0.519248,2.749109 -0.25961,12.193201 -1.908659,16.279788 l -4.430003,-0.282409 c 0,0 -1.120446,-13.530678 -1.292592,-14.446311 -0.172134,-0.915182 -3.729828,-8.175437 -5.203378,-12.121709 -1.473563,-3.946732 -1.561572,-5.780237 0,-7.188751 z"
       fill="#7dc4be"
       id="path38"
       style="stroke-width:0.495777" />
    <path
       d="m 74.591738,62.191046 c 0,0.530429 -0.953754,1.44339 -3.294717,1.796852 -2.340417,0.350794 -5.203377,-1.021087 -4.336537,-1.938944 0.323439,-0.34365 0.522557,-1.026019 0.640272,-1.747705 0.199582,-1.205198 0.184182,-2.515415 0.184182,-2.515415 0,0 5.070261,-3.841221 5.028451,-1.867908 -0.04573,1.973366 1.775516,2.326845 1.775516,2.326845 -0.601156,2.184281 0.0028,3.418528 0.0028,3.946275 z"
       fill="#e9928b"
       id="path40"
       style="stroke-width:0.495777" />
    <path
       d="m 72.816223,55.917926 c -1.353099,2.771021 -3.478998,3.919471 -5.215467,4.383323 0.199582,-1.205198 0.184182,-2.515853 0.184182,-2.515853 0,0 5.073571,-3.838419 5.031215,-1.86747 z"
       fill="#de6667"
       id="path42"
       style="stroke-width:0.495777" />
    <path
       d="m 54.025752,53.844475 -9.032194,9.448996 c -0.123704,0.130049 -0.305277,0.208686 -0.492277,0.228345 -0.187534,0.0196 -0.386695,-0.0196 -0.546752,-0.122447 -1.334937,-0.844574 -1.576411,-2.407711 -0.540678,-3.492707 l 7.607593,-7.959412 z"
       fill="#8fb9cf"
       id="path44"
       style="stroke-width:0.495777" />
    <path
       d="m 54.026313,53.84429 -9.032755,9.449181 c -0.123704,0.130049 -0.305277,0.208686 -0.492277,0.228345 -0.619362,-0.851718 -0.570959,-1.96129 0.220535,-2.787994 l 7.607061,-7.959598 z"
       fill="#7a9db0"
       id="path46"
       style="stroke-width:0.495777" />
    <path
       d="m 58.06965,53.176531 c -1.328345,1.389143 -2.768892,2.285144 -3.218826,2.002736 -0.449934,-0.284655 0.262358,-1.639512 1.591264,-3.031102 1.328892,-1.389175 2.769439,-2.284975 3.219373,-2.002734 0.449922,0.282255 -0.262919,1.641925 -1.591811,3.0311 z"
       fill="#8fb9cf"
       id="path48"
       style="stroke-width:0.495777" />
    <path
       d="m 54.073075,46.60187 -4.818928,5.04125 5.599426,3.535252 4.818885,-5.041015 z"
       fill="#8fb9cf"
       id="path50"
       style="stroke-width:0.495777" />
    <path
       d="m 56.671446,52.717696 -3.273287,-2.066544 c -0.184196,-0.115361 -0.217815,-0.328889 -0.07251,-0.478598 0.141978,-0.14964 0.404842,-0.17668 0.588547,-0.05894 l 3.273847,2.066546 c 0.184182,0.11536 0.217254,0.328887 0.07251,0.478595 -0.141965,0.147276 -0.407578,0.174231 -0.589094,0.05895 z"
       fill="#7a9db0"
       id="path52"
       style="stroke-width:0.495777" />
    <path
       d="m 57.885385,51.230476 -3.273273,-2.066542 c -0.184196,-0.11536 -0.217829,-0.32889 -0.07251,-0.478581 0.141992,-0.149641 0.404829,-0.176749 0.589093,-0.05894 l 3.273273,2.066526 c 0.184196,0.115348 0.217268,0.328889 0.07251,0.478596 -0.141993,0.147276 -0.407564,0.174232 -0.589094,0.05894 z"
       fill="#7a9db0"
       id="path54"
       style="stroke-width:0.495777" />
    <path
       d="m 55.219341,54.018605 -3.273833,-2.066526 c -0.184182,-0.115361 -0.217254,-0.328888 -0.07251,-0.478648 0.141993,-0.14964 0.404815,-0.17668 0.589094,-0.05894 l 3.273287,2.066594 c 0.184182,0.115348 0.217814,0.328838 0.07251,0.478579 -0.141993,0.147277 -0.407563,0.17425 -0.588533,0.05894 z"
       fill="#7a9db0"
       id="path56"
       style="stroke-width:0.495777" />
    <path
       d="m 52.470786,49.640301 -0.0056,0.0067 c -0.190423,0.201271 -0.38337,0.390248 -0.576429,0.566946 -0.22386,0.20372 -0.441128,0.390248 -0.655646,0.559597 -0.891074,0.699495 -1.673228,1.062754 -1.98124,0.868845 l -0.0084,0.01016 -23.999346,-7.2206 14.283973,-14.944404 14.544172,17.114025 -0.0084,0.01016 c 0.26839,0.169317 0.120337,0.726466 -0.326175,1.443121 -0.09398,0.149808 -0.199581,0.306814 -0.320129,0.468749 -0.123705,0.169369 -0.260186,0.343651 -0.410874,0.520348 -0.166103,0.196341 -0.344323,0.39761 -0.534648,0.596384 z"
       fill="#b2d3e4"
       id="path58"
       style="stroke-width:0.495777" />
    <path
       opacity="0.15"
       d="m 52.471347,49.640081 -0.0056,0.0067 -19.578656,-11.947707 2.425088,-2.535293 17.693714,13.8841 c -0.166104,0.191442 -0.344324,0.392714 -0.534087,0.59152 z"
       fill="#ffffff"
       id="path60"
       style="stroke-width:0.495777" />
    <path
       opacity="0.15"
       d="m 51.884455,50.214576 c -0.223326,0.203719 -0.44058,0.390248 -0.655098,0.559599 l -22.993865,-9.434437 3.584609,-2.091102 z"
       fill="#ffffff"
       id="path62"
       style="stroke-width:0.495777" />
    <path
       opacity="0.15"
       d="m 53.41576,48.523486 -17.210201,-15.0843 1.147374,-0.851651 16.382971,15.464735 c -0.09355,0.149639 -0.202498,0.309227 -0.320144,0.471216 z"
       fill="#ffffff"
       id="path64"
       style="stroke-width:0.495777" />
    <path
       d="m 34.801309,38.48493 c -1.111624,1.16338 -2.249672,2.208905 -3.339838,3.09246 h -0.0042 c -2.781557,2.25552 -5.260585,3.458118 -6.218198,2.851903 -1.334389,-0.84427 0.779405,-4.871832 4.72319,-8.997539 3.944346,-4.125741 8.226394,-6.788668 9.561344,-5.944399 0.960375,0.606214 0.138712,2.854403 -1.863525,5.603216 -0.782153,1.077496 -1.748586,2.233445 -2.859663,3.394359 z"
       fill="#8fb9cf"
       id="path66"
       style="stroke-width:0.495777" />
    <path
       d="m 34.644001,47.877326 c -0.171517,-0.107927 -0.201855,-0.311692 -0.06929,-0.451572 0.13296,-0.139844 0.383916,-0.164503 0.555531,-0.05641 0.338277,0.213568 1.77278,-0.176681 4.185806,-2.1328 l 0.19355,-0.157073 c 0.778859,-0.645465 1.55219,-1.367051 2.304119,-2.152427 0.815142,-0.851684 1.534055,-1.705785 2.137988,-2.537759 1.73647,-2.383189 1.844829,-3.610326 1.507112,-3.823876 -0.172133,-0.107927 -0.202485,-0.311695 -0.06985,-0.451572 0.133101,-0.139846 0.383945,-0.164506 0.556092,-0.05641 1.286003,0.812399 -0.489541,3.526908 -1.310742,4.655867 -0.622082,0.8541 -1.35913,1.730308 -2.192463,2.604068 -0.833864,0.871258 -1.694112,1.668915 -2.560993,2.370858 l -0.250816,0.198806 c -1.265062,0.994012 -3.783699,2.746395 -4.986095,1.99044 z"
       fill="#8fb9cf"
       id="path68"
       style="stroke-width:0.495777" />
    <path
       d="m 34.801309,38.48493 c -1.111624,1.163329 -2.250219,2.208905 -3.340385,3.09246 h -0.0028 c -1.422468,-1.494683 -1.482959,-3.634866 0.0084,-5.195808 1.492244,-1.560957 4.05875,-2.042003 6.194003,-1.293461 -0.782168,1.079946 -1.748587,2.235895 -2.859678,3.396809 z"
       fill="#7a9db0"
       id="path70"
       style="stroke-width:0.495777" />
    <path
       opacity="0.15"
       d="m 34.381627,37.441583 c -0.395473,0.414788 -0.996657,0.574327 -1.340996,0.355895 -0.343776,-0.218431 -0.30198,-0.728932 0.09398,-1.143722 0.395474,-0.41477 0.996126,-0.574308 1.340449,-0.355875 0.344337,0.215963 0.301981,0.728932 -0.09341,1.143702 z"
       fill="#ffffff"
       id="path72"
       style="stroke-width:0.495777" />
    <path
       d="m 53.132489,58.06826 c 0,0 -0.172118,-2.969877 -1.244191,-3.978549 -1.075313,-1.008757 -1.975196,-0.824646 -1.790916,0 0.187098,0.82456 1.005466,2.272848 0.211223,3.644728 z"
       fill="#e9928b"
       id="path74"
       style="stroke-width:0.495777" />
    <path
       d="m 51.866839,138.76708 v 2.91804 h 9.093262 l 0.824509,-2.91804 z"
       fill="#4a4e73"
       id="path76"
       style="stroke-width:0.495777" />
    <path
       d="m 78.686801,141.68512 h 10.282993 l -0.299218,-2.91804 H 77.599357 Z"
       fill="#4a4e73"
       id="path78"
       style="stroke-width:0.495777" />
    <path
       d="m 85.391231,146.34281 -0.250817,-0.0684 c 0.01262,-0.0294 0.304716,-0.69713 2.056599,-1.21993 l 0.09088,0.20106 c -1.612722,0.48129 -1.893791,1.0801 -1.896555,1.08724 z"
       fill="#ffffff"
       id="path80"
       style="stroke-width:0.495777" />
    <path
       d="m 87.372471,147.14806 -0.253551,-0.0541 c 0.01459,-0.0442 0.365207,-1.08007 1.817886,-1.40629 l 0.06929,0.20603 c -1.304711,0.29222 -1.621531,1.215 -1.63362,1.25433 z"
       fill="#ffffff"
       id="path82"
       style="stroke-width:0.495777" />
    <path
       d="m 89.78495,147.13107 -0.26236,-0.0195 c 0.0028,-0.0246 0.07209,-0.62561 0.552236,-1.03315 l 0.190213,0.14694 c -0.413624,0.35347 -0.480173,0.90088 -0.480173,0.9058 z"
       fill="#ffffff"
       id="path84"
       style="stroke-width:0.495777" />
    <path
       d="m 55.146184,145.61397 c -1.322285,-0.41471 -2.66659,-0.38745 -2.67868,-0.38745 l -0.0084,-0.2136 c 0.06045,-0.003 1.410296,-0.0296 2.781557,0.40264 z"
       fill="#ffffff"
       id="path86"
       style="stroke-width:0.495777" />
    <path
       d="m 53.627529,146.40446 c -1.428457,-0.51299 -2.506532,-0.57198 -2.51534,-0.57422 l 0.01459,-0.2136 c 0.04572,0.003 1.129786,0.0611 2.606099,0.5912 z"
       fill="#ffffff"
       id="path88"
       style="stroke-width:0.495777" />
    <path
       d="m 51.329456,146.78967 c -0.404829,-0.29717 -1.501053,-0.43435 -1.513143,-0.43435 l 0.03955,-0.21138 c 0.04782,0.004 1.183673,0.14966 1.64846,0.48844 z"
       fill="#ffffff"
       id="path90"
       style="stroke-width:0.495777" />
    <g
       opacity="0.65"
       id="g94"
       transform="matrix(0.55004001,0,0,0.44686699,-98.91891,9.9683911)">
      <path
         opacity="0.65"
         d="m 286.308,133.14 c -1.664,4.317 -2.207,12.352 -2.207,12.352 0,0 -0.006,0.005 -0.017,0.016 -0.461,0.357 -12.188,9.326 -18.222,3.515 -0.873,-0.84 -1.532,-2.01 -2.021,-3.421 3.338,0.461 6.193,3.976 10.147,-0.105 6.138,-6.349 12.32,-12.357 12.32,-12.357 z"
         fill="#379690"
         id="path92" />
    </g>
    <path
       d="m 66.573818,48.34439 c 0,0 -3.600022,8.032914 -0.866854,9.655501 2.733141,1.619886 7.112008,-2.078839 7.112008,-2.078839 0,0 1.863539,0.07109 2.86296,-1.163633 0.996658,-1.231917 -0.737049,-1.774323 -1.515906,-1.37921 -0.779419,0.392713 -1.691377,-0.206137 -1.084149,-1.72048 0.606711,-1.514309 0.25961,-1.58548 -0.911958,-1.37438 -1.174893,0.208586 -5.466296,-1.516807 -5.596101,-1.938959 z"
       fill="#e9928b"
       id="path96"
       style="stroke-width:0.495777" />
    <path
       d="M 86.51716,138.80818 C 82.687781,115.56082 76.343075,97.847905 76.279821,97.671392 l 0.757931,-0.181877 c 0.06325,0.176964 6.426685,17.939025 10.261563,41.232845 z"
       fill="#4a4e73"
       id="path98"
       style="stroke-width:0.495777" />
    <path
       d="m 241.49456,130.01709 c -1.7375,-0.74697 -4.44602,-0.44749 -4.47204,-0.44306 l -0.0443,-0.38897 c 0.11375,-0.0124 2.84032,-0.31379 4.66537,0.47403 z"
       fill="#ffffff"
       id="path110"
       style="stroke-width:0.876485" />
    <path
       d="m 238.58835,132.84893 -0.14063,-0.36239 c 0.0745,-0.0301 1.85194,-0.73367 3.55822,-0.84532 l 0.0229,0.38898 c -1.64039,0.10723 -3.42206,0.8143 -3.43943,0.81873 z"
       fill="#ffffff"
       id="path112"
       style="stroke-width:0.876485" />
    <path
       d="m 123.29217,178.78534 c 0,0 0.029,-15.37705 -19.06952,-7.89875 0,0 -4.19858,-13.23737 -15.195366,-12.61147 -10.999615,0.6259 -12.064289,13.15288 -12.064289,13.15288 0,0 -15.06322,-6.74991 -23.14389,6.9394 z"
       fill="#adccc7"
       id="path194"
       style="stroke-width:0.53251" />
    <path
       d="m 91.119779,178.23941 -0.469094,-0.0571 c 1.271706,-8.00822 -3.620603,-13.75081 -3.669953,-13.80828 l 0.375514,-0.25347 c 0.04931,0.0574 5.060771,5.93956 3.763533,14.11873 z"
       fill="#6eab9c"
       id="path196"
       style="stroke-width:0.53251" />
    <path
       d="m 91.291072,173.3252 -0.383447,-0.24645 c 0.04373,-0.055 4.511712,-5.47112 5.272925,-8.87609 l 0.463991,0.0799 c -0.779929,3.49845 -5.167405,8.8191 -5.353469,9.04254 z"
       fill="#6eab9c"
       id="path198"
       style="stroke-width:0.53251" />
    <path
       d="m 91.07836,176.16374 c -3.488413,-0.19196 -6.573549,-3.83188 -6.702887,-3.98685 l 0.380617,-0.24695 c 0.03109,0.0371 3.084557,3.63791 6.350633,3.81837 z"
       fill="#6eab9c"
       id="path200"
       style="stroke-width:0.53251" />
    <path
       d="m 102.26745,178.18443 0.63415,-0.40195 c 0.0596,-0.0385 6.1073,-3.81538 12.5799,-4.08284 l 0.0234,0.41593 c -5.06872,0.20748 -9.88332,2.62609 -11.63434,3.60094 l 6.28087,-0.19197 0.015,0.41593 z"
       fill="#6eab9c"
       id="path202"
       style="stroke-width:0.53251" />
    <path
       d="m 12.837651,146.0023 -0.434521,-0.12064 c 0.964764,-2.28395 2.998824,-4.44321 3.08407,-4.53527 l 0.364128,0.22657 c -0.02076,0.0223 -2.0742,2.20439 -3.013677,4.42934 z"
       fill="#6eab9c"
       id="path204"
       style="stroke-width:0.495777" />
    <path
       d="m 76.854088,178.11143 c -0.04651,-0.0346 -4.7369,-3.50744 -9.968406,-5.12666 l 0.155428,-0.39245 c 5.317153,1.64374 10.06936,5.16516 10.118712,5.19918 z"
       fill="#6eab9c"
       id="path206"
       style="stroke-width:0.53251" />
    <path
       d="m 64.658189,176.89463 -0.214984,-0.37243 c 0.137206,-0.0615 3.441935,-1.52076 9.52088,-0.77389 l -0.06475,0.41294 c -5.920708,-0.72389 -9.210023,0.7194 -9.241237,0.73338 z"
       fill="#6eab9c"
       id="path208"
       style="stroke-width:0.53251" />
    <path
       d="M 134.9139,52.595769 H 86.678292 c 0,0 3.317743,-6.526104 10.973503,-3.82478 0,0 2.807765,-6.74993 9.443165,-5.962157 6.63538,0.78783 7.91221,4.861527 7.91221,4.861527 0,0 7.14589,-2.5004 14.03767,2.564283 0,0 5.61495,-0.563948 5.86906,2.361127 z"
       fill="#edf6f5"
       id="path314"
       style="stroke-width:0.53251" />
    <path
       d="m 246.69695,120.17522 h -48.23563 c 0,0 3.31769,-6.52596 10.97352,-3.82489 0,0 2.80777,-6.74991 9.44314,-5.96205 6.63541,0.78787 7.9122,4.86123 7.9122,4.86123 0,0 7.14592,-2.5001 14.03768,2.56459 0,0 5.61495,-0.56391 5.86909,2.36112 z"
       fill="#edf6f5"
       id="path316"
       style="stroke-width:0.53251" />
    <path
       d="m 191.49213,183.06797 0.45296,-0.37704 c 0.0444,-0.0362 4.3556,-3.57903 8.97002,-3.82992 l 0.0162,0.39018 c -3.61552,0.19461 -7.04499,2.46338 -8.29465,3.37784 l 4.47692,-0.18007 0.0123,0.39015 z"
       fill="#6eab9c"
       id="path186"
       style="stroke-width:0.43549" />
    <path
       d="m 195.03889,181.03977 -0.31949,-0.12656 c 0.70774,-2.3968 2.2041,-4.66277 2.26879,-4.75936 l 0.26693,0.23774 c -0.0162,0.0234 -1.52466,2.31334 -2.21623,4.64823 z"
       fill="#6eab9c"
       id="path188"
       style="stroke-width:0.43549" />
    <path
       d="m 197.39262,57.979414 h 22.35227 v 8.929959 h -3.98355 l 2.07872,5.678424 -7.42918,-5.678424 h -13.01826 z"
       fill="#eb908b"
       id="path210"
       style="stroke-width:0.43549" />
    <path
       d="M 217.42351,60.58838 H 200.0456 v 0.985318 h 17.37791 z"
       fill="#ffffff"
       id="path212"
       style="stroke-width:0.43549" />
    <path
       d="M 217.42351,63.325617 H 200.0456 v 0.985299 h 17.37791 z"
       fill="#ffffff"
       id="path214"
       style="stroke-width:0.43549" />
    <path
       d="m 270.64915,100.29977 c -0.16986,0.25886 -0.37207,0.45394 -0.59045,0.59321 -1.82393,1.16298 -5.09569,-1.368863 -6.59204,-1.287265 -1.67834,0.09423 -2.47505,2.638785 -6.42623,0.833335 -3.95117,-1.805926 -3.03313,-8.93209 -2.79049,-11.618232 0.23861,-2.684273 -1.19707,-4.027072 -3.67212,-3.93495 -2.47505,0.09423 -5.08355,-1.480164 -3.95927,-6.016869 1.12428,-4.534601 -2.04636,-6.914377 -3.94309,-6.108995 -1.89268,0.805418 -0.8776,-3.054461 -0.8776,-3.054461 0,0 1.62172,-2.675363 4.82069,-2.287684 1.00295,0.122124 1.72687,0.505527 2.27687,1.036717 0,0 0.005,3.6e-5 0.005,0.0036 0.12947,0.124247 0.2467,0.257017 0.35993,0.394148 0,0.0036 0.005,0.0071 0.007,0.01065 0.92208,1.163089 1.28606,2.788884 1.87246,4.03338 0.95847,2.037029 2.55188,1.897806 5.02693,1.019543 2.47505,-0.880356 7.46153,-0.473358 8.53731,4.322601 1.07978,4.795893 -1.79159,10.397269 3.35667,11.78723 5.14421,1.38387 4.18574,7.86569 2.58828,10.273292 z"
       fill="#0c1b3c"
       id="path218"
       style="stroke-width:0.43549" />
    <path
       d="m 241.99199,69.32201 c 0,0 1.49231,1.141663 1.32245,3.457189 0,0 0,0.668304 -0.65515,0.325591 -0.65517,-0.342695 -1.18901,-2.851024 -1.13238,-3.390829 0.0607,-0.541914 0.29927,-0.456235 0.46508,-0.391951 z"
       fill="#3fb8a9"
       id="path220"
       style="stroke-width:0.43549" />
    <path
       d="m 241.36109,79.65492 c -2.28496,2.313325 -3.40925,2.152657 -4.07655,1.017429 -0.24669,-0.421952 -0.93824,-1.469411 -1.71068,-2.615379 -1.29009,-1.929922 -2.80264,-4.140505 -2.80264,-4.140505 0,0 -2.39416,-0.175646 -2.44672,-2.324053 -0.007,-0.411269 0.0566,-0.822504 0.19815,-1.220923 0.59045,-1.687881 2.46292,-3.148719 5.06738,-3.39721 3.22322,-0.308417 6.14718,1.544387 7.00051,4.13618 0.84524,2.589683 1.05958,6.231079 -1.22945,8.544461 z"
       fill="#0c1b3c"
       id="path222"
       style="stroke-width:0.43549" />
    <g
       opacity="0.52"
       id="g226"
       transform="matrix(0.40441938,0,0,0.46894966,-283.86646,38.28351)">
      <path
         opacity="0.52"
         d="m 1284.41,84.814 c -3.19,-4.1154 -6.93,-8.8293 -6.93,-8.8293 0,0 -5.92,-0.3745 -6.05,-4.9558 -0.02,-0.877 0.14,-1.754 0.49,-2.6036 1.18,-1.8407 3.39,-3.4257 7.53,-2.905 8.88,1.1191 4.76,15.9594 6.95,17.5215 0.8,0.5755 -0.28,1.2059 -1.99,1.7722 z"
         fill="#1b5175"
         id="path224" />
    </g>
    <path
       d="m 222.85082,120.89696 c 0,0 -1.26989,0.43285 -1.89673,0.97871 -0.62281,0.54631 -2.13939,1.39463 -2.17172,1.6793 -0.0282,0.28512 1.27796,-0.15845 1.78753,-0.38969 0.51362,-0.23119 0.43272,0.33857 -0.20626,1.04107 -0.63898,0.70248 -0.89781,1.01105 -1.63386,1.66008 -0.73604,0.65089 -0.82096,0.94257 -0.53787,1.0603 0.28309,0.11763 0.54596,-0.0966 0.54596,-0.0966 0,0 -0.66324,0.58291 -0.40037,0.90835 0.26286,0.32545 1.07171,-0.36624 1.07171,-0.36624 0,0 -0.23051,0.46895 0.32757,0.45395 0.55811,-0.0141 0.74819,-0.30622 1.40738,-0.53134 0.65921,-0.22462 2.64492,-2.65566 3.10595,-3.50211 0.46508,-0.84598 0.6956,-1.57848 0.6956,-1.57848 z"
       fill="#ffac95"
       id="path228"
       style="stroke-width:0.43549" />
    <path
       d="m 236.54041,100.89298 c 0,0 1.21732,7.05112 -1.75517,10.9992 -2.97652,3.94762 -9.7546,11.16806 -9.7546,11.16806 l -2.49527,-2.26832 c 0,0 6.10674,-9.37337 6.94389,-12.97161 0.17793,-0.76721 0.3478,-2.24066 0.3478,-2.24066 z"
       fill="#f5911f"
       id="path230"
       style="stroke-width:0.43549" />
    <path
       d="m 227.92628,119.86667 c 0,0 -0.19008,-0.8141 0.089,-1.52736 0.28307,-0.71325 1.61766,1.42231 1.61766,1.42231 l 0.35185,1.77781 z"
       fill="#ffac95"
       id="path232"
       style="stroke-width:0.43549" />
    <path
       d="m 260.86625,168.27353 c 1.14045,1.42233 3.55888,6.77727 3.55888,6.77727 l -1.79157,1.51002 c 0,0 -2.05041,-3.5748 -2.47505,-3.36048 -0.42464,0.21384 -0.007,5.45341 -0.57833,5.93313 -0.57023,0.47974 -4.35559,3.67142 -4.35559,3.67142 0,0 -0.16177,-1.84626 0.57428,-3.55136 0.65515,-1.50814 1.32648,-4.61822 -0.38016,-9.30724 -0.22243,-0.60823 -0.4853,-1.24225 -0.78862,-1.90207 l 3.93096,-4.25149 c 0,0 0.48529,1.26803 1.13642,2.54874 0.35589,0.71139 0.76436,1.42655 1.16878,1.93206 z"
       fill="#1b5175"
       id="path234"
       style="stroke-width:0.43549" />
    <path
       d="m 254.63009,168.04656 3.93096,-4.25149 c 0,0 0.48529,1.26805 1.13642,2.54874 l -4.27876,3.60295 c -0.22243,-0.60636 -0.4853,-1.24038 -0.78862,-1.9002 z"
       fill="#e9928b"
       id="path236"
       style="stroke-width:0.43549" />
    <path
       d="m 261.74788,162.77042 -8.72737,6.91466 c 0,0 -4.56186,-6.50997 -8.6101,-12.49236 -2.70151,-3.99496 -5.17252,-7.75172 -5.89642,-9.18719 -1.45996,-2.89153 -3.54677,-14.32125 -4.29494,-18.60746 -0.17794,-1.01949 -0.27905,-1.63616 -0.27905,-1.63616 l 1.06767,-3.48102 2.07466,-6.75802 0.15368,-0.50131 c 0,0 1.5004,-0.89523 3.16661,-1.37497 0.44485,-0.1285 0.90185,-0.22697 1.34268,-0.27199 1.35884,-0.13506 2.60041,0.23966 2.98865,1.84439 0.0202,0.0942 0.0405,0.19274 0.0566,0.29546 0.0769,0.47974 0.16175,1.09451 0.25073,1.8078 0.75223,6.07475 1.8118,19.47499 2.14342,20.98079 0.37612,1.68352 14.56315,22.46738 14.56315,22.46738 z"
       fill="#5f6386"
       id="path238"
       style="stroke-width:0.43549" />
    <path
       d="m 244.41041,157.19272 c -2.70151,-3.99496 -5.17252,-7.75172 -5.89642,-9.18671 -1.45996,-2.89201 -3.54677,-14.32173 -4.29494,-18.60794 0.20626,-0.95947 0.36801,-1.59348 0.44485,-1.73042 0.44891,-0.78174 10.38146,-8.3412 10.38146,-8.3412 0,0 0.41249,6.75803 -1.55702,11.07004 -1.96547,4.31386 -3.6519,7.47552 -2.07873,12.12141 1.5732,4.64822 -1.79965,7.32359 0.90188,9.93046 1.55701,1.50768 2.00186,3.41021 2.09892,4.74436 z"
       fill="#4a4e73"
       id="path240"
       style="stroke-width:0.43549" />
    <path
       d="m 227.52186,174.89699 c 0.20221,1.92785 -0.55406,7.91024 -0.55406,7.91024 h -2.21217 c 0,0 0.14964,-4.29041 -0.3033,-4.40813 -0.45296,-0.11762 -2.77029,4.40813 -3.47398,4.40813 -0.70774,0 -5.38686,0 -5.38686,0 0,0 0.8048,-1.60428 2.26474,-2.48027 1.29415,-0.77564 3.41331,-2.83387 4.40818,-7.79065 0.12946,-0.64246 0.2386,-1.33417 0.32758,-2.07559 l 5.33429,-0.75828 c 0,0 -0.25075,1.35619 -0.37611,2.8362 -0.0688,0.81363 -0.10101,1.67087 -0.0284,2.35835 z"
       fill="#1b5175"
       id="path242"
       style="stroke-width:0.43549" />
    <path
       d="m 222.59199,170.45838 5.33429,-0.75828 c 0,0 -0.25075,1.35619 -0.37611,2.83621 h -5.28576 c 0.12946,-0.64483 0.2386,-1.33465 0.32758,-2.07793 z"
       fill="#e9928b"
       id="path244"
       style="stroke-width:0.43549" />
    <path
       d="m 232.55689,114.18583 c 0,0 -7.6597,20.86077 -9.89615,29.49929 -2.23239,8.64086 -5.6376,27.27831 -5.6376,27.27831 h 11.70389 c 0,0 4.57803,-25.3031 6.60013,-29.37734 2.0221,-4.07377 9.57664,-18.88603 8.40383,-24.19359 -1.17281,-5.3057 -11.1741,-3.20667 -11.1741,-3.20667 z"
       fill="#5f6386"
       id="path246"
       style="stroke-width:0.43549" />
    <path
       d="m 245.04536,119.32645 -3.5508,10.69064 -11.50978,-8.47766 7.10161,-4.01235 3.31623,-1.87627 0.93016,-0.52708 0.41252,0.25513 2.98865,1.84436 c 0.0243,0.0944 0.0444,0.19273 0.0607,0.29544 0.0769,0.47787 0.16177,1.09264 0.25074,1.8078 z"
       fill="#4a4e73"
       id="path248"
       style="stroke-width:0.43549" />
    <path
       d="m 239.04782,86.050726 c 0,0 -2.76623,1.349621 -5.10782,5.052941 -2.34159,3.703754 -5.10782,10.587933 -5.31812,11.896773 -0.21434,1.30886 1.82393,11.71014 1.81585,14.3944 -0.007,2.68381 10.88696,1.69199 13.97268,-0.0365 0,0 -1.2092,-9.83807 -1.2092,-11.19616 0,-1.35808 0.10509,-10.491348 -0.53384,-14.68752 -0.63898,-4.196146 -3.61955,-5.423855 -3.61955,-5.423855 z"
       fill="#ffab40"
       id="path250"
       style="stroke-width:0.43549" />
    <path
       d="m 238.38861,95.728428 c 0,0 -0.43677,3.377835 0,5.920492 0.43678,2.54265 -2.98462,0.99607 -4.16956,6.17092 -1.18496,5.17534 8.96599,2.66502 8.96599,2.66502 0,0 2.79453,-4.98865 2.81475,-5.83698 0.0202,-0.84599 -7.61118,-8.919452 -7.61118,-8.919452 z"
       fill="#f5911f"
       id="path252"
       style="stroke-width:0.43549" />
    <path
       d="m 239.04782,86.050726 c 0,0 -5.34643,6.379123 -4.87731,4.69982 0.25884,-0.925713 -0.19007,-3.138208 -0.64706,-4.939448 -0.3761,-1.471708 -0.75223,-2.669068 -0.75223,-2.669068 0,0 1.02724,-1.21233 2.10299,-2.246942 1.14045,-1.096727 2.33349,-1.992042 2.41033,-1.023899 0.1537,1.882848 1.76328,6.179537 1.76328,6.179537 z"
       fill="#ffac95"
       id="path254"
       style="stroke-width:0.43549" />
    <path
       d="m 225.20454,98.88683 -6.02181,15.05092 22.38867,12.05809 6.02584,-15.05091 z"
       fill="#3fb8a9"
       id="path256"
       style="stroke-width:0.43549" />
    <path
       d="m 225.92844,101.1828 -4.76809,11.91507 19.68712,10.602 4.76812,-11.91507 z"
       fill="#ffffff"
       id="path258"
       style="stroke-width:0.43549" />
    <path
       d="m 223.17841,114.40201 8.07625,-6.58266 0.87355,11.40205 z"
       fill="#3fb8a9"
       id="path260"
       style="stroke-width:0.43549" />
    <path
       d="m 231.71569,119.02024 6.24424,-5.0914 0.67537,8.82047 z"
       fill="#3fb8a9"
       id="path262"
       style="stroke-width:0.43549" />
    <path
       d="m 236.57277,110.56037 c 0.36802,-0.83848 0.0769,-1.8636 -0.64708,-2.28894 -0.71985,-0.42535 -1.60553,-0.0905 -1.97356,0.74845 -0.36398,0.83849 -0.0769,1.8636 0.64707,2.28894 0.72392,0.42535 1.60555,0.0905 1.97357,-0.74845 z"
       fill="#3fb8a9"
       id="path264"
       style="stroke-width:0.43549" />
    <path
       d="m 232.08776,116.57888 c 0,0 -1.03936,0.17122 -1.7754,0.38968 -0.73604,0.21853 -2.18791,0.0986 -2.35373,0.48866 -0.16984,0.38971 1.62981,0.73249 2.06658,0.77939 0.43678,0.0473 -0.67942,0.76252 -1.31032,0.96603 -0.63089,0.20354 -1.13642,0.4971 -0.4853,1.18036 0.65516,0.68324 1.66217,1.70742 2.08277,1.78012 0.42058,0.0727 2.48314,-1.73276 3.61956,-3.07396 1.13236,-1.34072 -1.84416,-2.51028 -1.84416,-2.51028 z"
       fill="#ffac95"
       id="path266"
       style="stroke-width:0.43549" />
    <path
       d="m 239.15297,88.325613 c -2.00592,1.781975 -1.22135,6.357542 -0.2103,9.319901 1.01104,2.962336 3.88242,8.394196 3.66808,8.887076 -0.21031,0.49472 -10.85867,9.86619 -10.85867,9.86619 l 2.18792,3.18698 c 0,0 10.10645,-5.89466 12.60979,-7.99183 2.49932,-2.09899 2.71366,-4.38234 1.96953,-7.34468 -0.74413,-2.96234 -5.05525,-19.749191 -9.36635,-15.923637 z"
       fill="#ffab40"
       id="path268"
       style="stroke-width:0.43549" />
    <path
       d="m 224.5696,171.01502 -0.49743,-0.10078 c 0.15771,-1.06639 3.94308,-26.12801 4.61038,-28.48636 0.66324,-2.34521 5.86812,-17.60483 6.09055,-18.25198 l 0.46914,0.21666 c -0.0526,0.15846 -5.42327,15.88896 -6.07844,18.21964 -0.65515,2.31567 -4.55376,28.14165 -4.5942,28.40285 z"
       fill="#4a4e73"
       id="path270"
       style="stroke-width:0.43549" />
    <path
       d="m 257.90184,165.84438 c -0.0769,-0.11577 -7.96705,-11.58633 -12.10022,-17.51713 -4.16955,-5.98476 -5.71041,-14.38786 -5.72658,-14.47133 l 0.49339,-0.11998 c 0.0162,0.0835 1.5368,8.34964 5.62951,14.22042 4.13317,5.93128 12.01936,17.40413 12.10023,17.5195 z"
       fill="#4a4e73"
       id="path272"
       style="stroke-width:0.43549" />
    <g
       opacity="0.52"
       id="g276"
       transform="matrix(0.40441938,0,0,0.46894966,-283.86646,38.28351)">
      <path
         opacity="0.52"
         d="m 1371.14,132.244 c -0.42,0.553 -0.92,0.968 -1.46,1.265 4.39,-5.225 1.17,-12.15 -10.09,-12.008 -11.26,0.137 -14.32,-9.597 -7.64,-25.725 6.67,-16.1284 -10.15,-17.3845 -17.24,-13.7669 -7.09,3.6176 -14.32,0.2786 -14.04,-7.5458 0.19,-5.2345 -1.36,-7.9933 -2.41,-9.2494 2.29,2.4802 3.18,5.947 4.63,8.6008 2.37,4.3438 6.32,4.047 12.44,2.1742 6.11,-1.8773 18.44,-1.0094 21.11,9.2175 2.66,10.227 -4.44,22.1716 8.29,25.1356 12.73,2.946 10.36,16.768 6.41,21.902 z"
         fill="#1b5175"
         id="path274" />
    </g>
    <path
       d="m 236.38674,80.612656 c 0,0 -0.80076,3.405794 -2.86329,5.198442 -0.3761,-1.471361 -0.75223,-2.668758 -0.75223,-2.668758 0,0 1.02724,-1.212355 2.10299,-2.246967 z"
       fill="#e9928b"
       id="path278"
       style="stroke-width:0.43549" />
    <path
       d="m 232.92894,71.787111 c 0,0 -1.43568,4.134071 -2.79452,4.937345 -1.35481,0.803202 -0.45295,0.987409 0,1.882776 0.45293,0.895314 -1.27797,3.671367 0.21434,4.937286 1.48827,1.265932 4.94604,-0.803255 6.03798,-2.93237 0,0 1.88863,0.09212 2.34159,-1.574362 0.45295,-1.666472 -1.01106,-2.716075 -1.86034,-1.974943 -0.85333,0.741134 -0.95847,-0.803272 -1.33054,-3.116583 -0.37206,-2.313384 -2.42652,-2.651771 -2.60851,-2.159149 z"
       fill="#ffac95"
       id="path280"
       style="stroke-width:0.43549" />
    <path
       d="m 198.76765,97.901548 c 0,3.343622 -1.56511,6.263282 -3.88648,7.826772 l -1.39524,-2.79071 c 1.49635,-1.00498 2.50335,-2.88312 2.50335,-5.036062 0,-1.608503 -0.56214,-3.065067 -1.47208,-4.118796 l 1.96144,-2.277204 c 1.41546,1.634295 2.28901,3.896491 2.28901,6.396 z"
       fill="#ffffff"
       id="path300"
       style="stroke-width:0.43549" />
  </g>
</svg>
